<?xml version="1.0" encoding="utf-8" standalone="no"?>
<!DOCTYPE svg PUBLIC "-//W3C//DTD SVG 1.1//EN"
  "http://www.w3.org/Graphics/SVG/1.1/DTD/svg11.dtd">
<svg xmlns:xlink="http://www.w3.org/1999/xlink" width="648.040738pt" height="310.86825pt" viewBox="0 0 648.040738 310.86825" xmlns="http://www.w3.org/2000/svg" version="1.1">
 <metadata>
  <rdf:RDF xmlns:dc="http://purl.org/dc/elements/1.1/" xmlns:cc="http://creativecommons.org/ns#" xmlns:rdf="http://www.w3.org/1999/02/22-rdf-syntax-ns#">
   <cc:Work>
    <dc:type rdf:resource="http://purl.org/dc/dcmitype/StillImage"/>
    <dc:date>2026-01-19T07:06:03.935590</dc:date>
    <dc:format>image/svg+xml</dc:format>
    <dc:creator>
     <cc:Agent>
      <dc:title>Matplotlib v3.9.2, https://matplotlib.org/</dc:title>
     </cc:Agent>
    </dc:creator>
   </cc:Work>
  </rdf:RDF>
 </metadata>
 <defs>
  <style type="text/css">*{stroke-linejoin: round; stroke-linecap: butt}</style>
 </defs>
 <g id="figure_1">
  <g id="patch_1">
   <path d="M 0 310.86825 
L 648.040738 310.86825 
L 648.040738 0 
L 0 0 
z
" style="fill: #ffffff"/>
  </g>
  <g id="axes_1">
   <g id="patch_2">
    <path d="M 50.14375 273.312 
L 407.26375 273.312 
L 407.26375 7.2 
L 50.14375 7.2 
z
" style="fill: #ffffff"/>
   </g>
   <g id="matplotlib.axis_1">
    <g id="xtick_1">
     <g id="line2d_1">
      <defs>
       <path id="m66e4471437" d="M 0 0 
L 0 3.5 
" style="stroke: #000000; stroke-width: 0.8"/>
      </defs>
      <g>
       <use xlink:href="#m66e4471437" x="66.376477" y="273.312" style="stroke: #000000; stroke-width: 0.8"/>
      </g>
     </g>
     <g id="text_1">
      <!-- 0 -->
      <g transform="translate(63.195227 287.910437) scale(0.1 -0.1)">
       <defs>
        <path id="DejaVuSans-30" d="M 2034 4250 
Q 1547 4250 1301 3770 
Q 1056 3291 1056 2328 
Q 1056 1369 1301 889 
Q 1547 409 2034 409 
Q 2525 409 2770 889 
Q 3016 1369 3016 2328 
Q 3016 3291 2770 3770 
Q 2525 4250 2034 4250 
z
M 2034 4750 
Q 2819 4750 3233 4129 
Q 3647 3509 3647 2328 
Q 3647 1150 3233 529 
Q 2819 -91 2034 -91 
Q 1250 -91 836 529 
Q 422 1150 422 2328 
Q 422 3509 836 4129 
Q 1250 4750 2034 4750 
z
" transform="scale(0.015625)"/>
       </defs>
       <use xlink:href="#DejaVuSans-30"/>
      </g>
     </g>
    </g>
    <g id="xtick_2">
     <g id="line2d_2">
      <g>
       <use xlink:href="#m66e4471437" x="131.307386" y="273.312" style="stroke: #000000; stroke-width: 0.8"/>
      </g>
     </g>
     <g id="text_2">
      <!-- 1 -->
      <g transform="translate(128.126136 287.910437) scale(0.1 -0.1)">
       <defs>
        <path id="DejaVuSans-31" d="M 794 531 
L 1825 531 
L 1825 4091 
L 703 3866 
L 703 4441 
L 1819 4666 
L 2450 4666 
L 2450 531 
L 3481 531 
L 3481 0 
L 794 0 
L 794 531 
z
" transform="scale(0.015625)"/>
       </defs>
       <use xlink:href="#DejaVuSans-31"/>
      </g>
     </g>
    </g>
    <g id="xtick_3">
     <g id="line2d_3">
      <g>
       <use xlink:href="#m66e4471437" x="196.238295" y="273.312" style="stroke: #000000; stroke-width: 0.8"/>
      </g>
     </g>
     <g id="text_3">
      <!-- 2 -->
      <g transform="translate(193.057045 287.910437) scale(0.1 -0.1)">
       <defs>
        <path id="DejaVuSans-32" d="M 1228 531 
L 3431 531 
L 3431 0 
L 469 0 
L 469 531 
Q 828 903 1448 1529 
Q 2069 2156 2228 2338 
Q 2531 2678 2651 2914 
Q 2772 3150 2772 3378 
Q 2772 3750 2511 3984 
Q 2250 4219 1831 4219 
Q 1534 4219 1204 4116 
Q 875 4013 500 3803 
L 500 4441 
Q 881 4594 1212 4672 
Q 1544 4750 1819 4750 
Q 2544 4750 2975 4387 
Q 3406 4025 3406 3419 
Q 3406 3131 3298 2873 
Q 3191 2616 2906 2266 
Q 2828 2175 2409 1742 
Q 1991 1309 1228 531 
z
" transform="scale(0.015625)"/>
       </defs>
       <use xlink:href="#DejaVuSans-32"/>
      </g>
     </g>
    </g>
    <g id="xtick_4">
     <g id="line2d_4">
      <g>
       <use xlink:href="#m66e4471437" x="261.169205" y="273.312" style="stroke: #000000; stroke-width: 0.8"/>
      </g>
     </g>
     <g id="text_4">
      <!-- 3 -->
      <g transform="translate(257.987955 287.910437) scale(0.1 -0.1)">
       <defs>
        <path id="DejaVuSans-33" d="M 2597 2516 
Q 3050 2419 3304 2112 
Q 3559 1806 3559 1356 
Q 3559 666 3084 287 
Q 2609 -91 1734 -91 
Q 1441 -91 1130 -33 
Q 819 25 488 141 
L 488 750 
Q 750 597 1062 519 
Q 1375 441 1716 441 
Q 2309 441 2620 675 
Q 2931 909 2931 1356 
Q 2931 1769 2642 2001 
Q 2353 2234 1838 2234 
L 1294 2234 
L 1294 2753 
L 1863 2753 
Q 2328 2753 2575 2939 
Q 2822 3125 2822 3475 
Q 2822 3834 2567 4026 
Q 2313 4219 1838 4219 
Q 1578 4219 1281 4162 
Q 984 4106 628 3988 
L 628 4550 
Q 988 4650 1302 4700 
Q 1616 4750 1894 4750 
Q 2613 4750 3031 4423 
Q 3450 4097 3450 3541 
Q 3450 3153 3228 2886 
Q 3006 2619 2597 2516 
z
" transform="scale(0.015625)"/>
       </defs>
       <use xlink:href="#DejaVuSans-33"/>
      </g>
     </g>
    </g>
    <g id="xtick_5">
     <g id="line2d_5">
      <g>
       <use xlink:href="#m66e4471437" x="326.100114" y="273.312" style="stroke: #000000; stroke-width: 0.8"/>
      </g>
     </g>
     <g id="text_5">
      <!-- 4 -->
      <g transform="translate(322.918864 287.910437) scale(0.1 -0.1)">
       <defs>
        <path id="DejaVuSans-34" d="M 2419 4116 
L 825 1625 
L 2419 1625 
L 2419 4116 
z
M 2253 4666 
L 3047 4666 
L 3047 1625 
L 3713 1625 
L 3713 1100 
L 3047 1100 
L 3047 0 
L 2419 0 
L 2419 1100 
L 313 1100 
L 313 1709 
L 2253 4666 
z
" transform="scale(0.015625)"/>
       </defs>
       <use xlink:href="#DejaVuSans-34"/>
      </g>
     </g>
    </g>
    <g id="xtick_6">
     <g id="line2d_6">
      <g>
       <use xlink:href="#m66e4471437" x="391.031023" y="273.312" style="stroke: #000000; stroke-width: 0.8"/>
      </g>
     </g>
     <g id="text_6">
      <!-- 5 -->
      <g transform="translate(387.849773 287.910437) scale(0.1 -0.1)">
       <defs>
        <path id="DejaVuSans-35" d="M 691 4666 
L 3169 4666 
L 3169 4134 
L 1269 4134 
L 1269 2991 
Q 1406 3038 1543 3061 
Q 1681 3084 1819 3084 
Q 2600 3084 3056 2656 
Q 3513 2228 3513 1497 
Q 3513 744 3044 326 
Q 2575 -91 1722 -91 
Q 1428 -91 1123 -41 
Q 819 9 494 109 
L 494 744 
Q 775 591 1075 516 
Q 1375 441 1709 441 
Q 2250 441 2565 725 
Q 2881 1009 2881 1497 
Q 2881 1984 2565 2268 
Q 2250 2553 1709 2553 
Q 1456 2553 1204 2497 
Q 953 2441 691 2322 
L 691 4666 
z
" transform="scale(0.015625)"/>
       </defs>
       <use xlink:href="#DejaVuSans-35"/>
      </g>
     </g>
    </g>
    <g id="text_7">
     <!-- Time (ms) -->
     <g transform="translate(203.504531 301.588562) scale(0.1 -0.1)">
      <defs>
       <path id="DejaVuSans-54" d="M -19 4666 
L 3928 4666 
L 3928 4134 
L 2272 4134 
L 2272 0 
L 1638 0 
L 1638 4134 
L -19 4134 
L -19 4666 
z
" transform="scale(0.015625)"/>
       <path id="DejaVuSans-69" d="M 603 3500 
L 1178 3500 
L 1178 0 
L 603 0 
L 603 3500 
z
M 603 4863 
L 1178 4863 
L 1178 4134 
L 603 4134 
L 603 4863 
z
" transform="scale(0.015625)"/>
       <path id="DejaVuSans-6d" d="M 3328 2828 
Q 3544 3216 3844 3400 
Q 4144 3584 4550 3584 
Q 5097 3584 5394 3201 
Q 5691 2819 5691 2113 
L 5691 0 
L 5113 0 
L 5113 2094 
Q 5113 2597 4934 2840 
Q 4756 3084 4391 3084 
Q 3944 3084 3684 2787 
Q 3425 2491 3425 1978 
L 3425 0 
L 2847 0 
L 2847 2094 
Q 2847 2600 2669 2842 
Q 2491 3084 2119 3084 
Q 1678 3084 1418 2786 
Q 1159 2488 1159 1978 
L 1159 0 
L 581 0 
L 581 3500 
L 1159 3500 
L 1159 2956 
Q 1356 3278 1631 3431 
Q 1906 3584 2284 3584 
Q 2666 3584 2933 3390 
Q 3200 3197 3328 2828 
z
" transform="scale(0.015625)"/>
       <path id="DejaVuSans-65" d="M 3597 1894 
L 3597 1613 
L 953 1613 
Q 991 1019 1311 708 
Q 1631 397 2203 397 
Q 2534 397 2845 478 
Q 3156 559 3463 722 
L 3463 178 
Q 3153 47 2828 -22 
Q 2503 -91 2169 -91 
Q 1331 -91 842 396 
Q 353 884 353 1716 
Q 353 2575 817 3079 
Q 1281 3584 2069 3584 
Q 2775 3584 3186 3129 
Q 3597 2675 3597 1894 
z
M 3022 2063 
Q 3016 2534 2758 2815 
Q 2500 3097 2075 3097 
Q 1594 3097 1305 2825 
Q 1016 2553 972 2059 
L 3022 2063 
z
" transform="scale(0.015625)"/>
       <path id="DejaVuSans-20" transform="scale(0.015625)"/>
       <path id="DejaVuSans-28" d="M 1984 4856 
Q 1566 4138 1362 3434 
Q 1159 2731 1159 2009 
Q 1159 1288 1364 580 
Q 1569 -128 1984 -844 
L 1484 -844 
Q 1016 -109 783 600 
Q 550 1309 550 2009 
Q 550 2706 781 3412 
Q 1013 4119 1484 4856 
L 1984 4856 
z
" transform="scale(0.015625)"/>
       <path id="DejaVuSans-73" d="M 2834 3397 
L 2834 2853 
Q 2591 2978 2328 3040 
Q 2066 3103 1784 3103 
Q 1356 3103 1142 2972 
Q 928 2841 928 2578 
Q 928 2378 1081 2264 
Q 1234 2150 1697 2047 
L 1894 2003 
Q 2506 1872 2764 1633 
Q 3022 1394 3022 966 
Q 3022 478 2636 193 
Q 2250 -91 1575 -91 
Q 1294 -91 989 -36 
Q 684 19 347 128 
L 347 722 
Q 666 556 975 473 
Q 1284 391 1588 391 
Q 1994 391 2212 530 
Q 2431 669 2431 922 
Q 2431 1156 2273 1281 
Q 2116 1406 1581 1522 
L 1381 1569 
Q 847 1681 609 1914 
Q 372 2147 372 2553 
Q 372 3047 722 3315 
Q 1072 3584 1716 3584 
Q 2034 3584 2315 3537 
Q 2597 3491 2834 3397 
z
" transform="scale(0.015625)"/>
       <path id="DejaVuSans-29" d="M 513 4856 
L 1013 4856 
Q 1481 4119 1714 3412 
Q 1947 2706 1947 2009 
Q 1947 1309 1714 600 
Q 1481 -109 1013 -844 
L 513 -844 
Q 928 -128 1133 580 
Q 1338 1288 1338 2009 
Q 1338 2731 1133 3434 
Q 928 4138 513 4856 
z
" transform="scale(0.015625)"/>
      </defs>
      <use xlink:href="#DejaVuSans-54"/>
      <use xlink:href="#DejaVuSans-69" x="57.958984"/>
      <use xlink:href="#DejaVuSans-6d" x="85.742188"/>
      <use xlink:href="#DejaVuSans-65" x="183.154297"/>
      <use xlink:href="#DejaVuSans-20" x="244.677734"/>
      <use xlink:href="#DejaVuSans-28" x="276.464844"/>
      <use xlink:href="#DejaVuSans-6d" x="315.478516"/>
      <use xlink:href="#DejaVuSans-73" x="412.890625"/>
      <use xlink:href="#DejaVuSans-29" x="464.990234"/>
     </g>
    </g>
    <g id="text_8">
     <!-- 1e−8 -->
     <g transform="translate(380.005938 300.588562) scale(0.1 -0.1)">
      <defs>
       <path id="DejaVuSans-2212" d="M 678 2272 
L 4684 2272 
L 4684 1741 
L 678 1741 
L 678 2272 
z
" transform="scale(0.015625)"/>
       <path id="DejaVuSans-38" d="M 2034 2216 
Q 1584 2216 1326 1975 
Q 1069 1734 1069 1313 
Q 1069 891 1326 650 
Q 1584 409 2034 409 
Q 2484 409 2743 651 
Q 3003 894 3003 1313 
Q 3003 1734 2745 1975 
Q 2488 2216 2034 2216 
z
M 1403 2484 
Q 997 2584 770 2862 
Q 544 3141 544 3541 
Q 544 4100 942 4425 
Q 1341 4750 2034 4750 
Q 2731 4750 3128 4425 
Q 3525 4100 3525 3541 
Q 3525 3141 3298 2862 
Q 3072 2584 2669 2484 
Q 3125 2378 3379 2068 
Q 3634 1759 3634 1313 
Q 3634 634 3220 271 
Q 2806 -91 2034 -91 
Q 1263 -91 848 271 
Q 434 634 434 1313 
Q 434 1759 690 2068 
Q 947 2378 1403 2484 
z
M 1172 3481 
Q 1172 3119 1398 2916 
Q 1625 2713 2034 2713 
Q 2441 2713 2670 2916 
Q 2900 3119 2900 3481 
Q 2900 3844 2670 4047 
Q 2441 4250 2034 4250 
Q 1625 4250 1398 4047 
Q 1172 3844 1172 3481 
z
" transform="scale(0.015625)"/>
      </defs>
      <use xlink:href="#DejaVuSans-31"/>
      <use xlink:href="#DejaVuSans-65" x="63.623047"/>
      <use xlink:href="#DejaVuSans-2212" x="125.146484"/>
      <use xlink:href="#DejaVuSans-38" x="208.935547"/>
     </g>
    </g>
   </g>
   <g id="matplotlib.axis_2">
    <g id="ytick_1">
     <g id="line2d_7">
      <defs>
       <path id="m1053d020b9" d="M 0 0 
L -3.5 0 
" style="stroke: #000000; stroke-width: 0.8"/>
      </defs>
      <g>
       <use xlink:href="#m1053d020b9" x="50.14375" y="254.767984" style="stroke: #000000; stroke-width: 0.8"/>
      </g>
     </g>
     <g id="text_9">
      <!-- 0.00 -->
      <g transform="translate(20.878125 258.567203) scale(0.1 -0.1)">
       <defs>
        <path id="DejaVuSans-2e" d="M 684 794 
L 1344 794 
L 1344 0 
L 684 0 
L 684 794 
z
" transform="scale(0.015625)"/>
       </defs>
       <use xlink:href="#DejaVuSans-30"/>
       <use xlink:href="#DejaVuSans-2e" x="63.623047"/>
       <use xlink:href="#DejaVuSans-30" x="95.410156"/>
       <use xlink:href="#DejaVuSans-30" x="159.033203"/>
      </g>
     </g>
    </g>
    <g id="ytick_2">
     <g id="line2d_8">
      <g>
       <use xlink:href="#m1053d020b9" x="50.14375" y="222.689753" style="stroke: #000000; stroke-width: 0.8"/>
      </g>
     </g>
     <g id="text_10">
      <!-- 0.25 -->
      <g transform="translate(20.878125 226.488971) scale(0.1 -0.1)">
       <use xlink:href="#DejaVuSans-30"/>
       <use xlink:href="#DejaVuSans-2e" x="63.623047"/>
       <use xlink:href="#DejaVuSans-32" x="95.410156"/>
       <use xlink:href="#DejaVuSans-35" x="159.033203"/>
      </g>
     </g>
    </g>
    <g id="ytick_3">
     <g id="line2d_9">
      <g>
       <use xlink:href="#m1053d020b9" x="50.14375" y="190.611521" style="stroke: #000000; stroke-width: 0.8"/>
      </g>
     </g>
     <g id="text_11">
      <!-- 0.50 -->
      <g transform="translate(20.878125 194.41074) scale(0.1 -0.1)">
       <use xlink:href="#DejaVuSans-30"/>
       <use xlink:href="#DejaVuSans-2e" x="63.623047"/>
       <use xlink:href="#DejaVuSans-35" x="95.410156"/>
       <use xlink:href="#DejaVuSans-30" x="159.033203"/>
      </g>
     </g>
    </g>
    <g id="ytick_4">
     <g id="line2d_10">
      <g>
       <use xlink:href="#m1053d020b9" x="50.14375" y="158.53329" style="stroke: #000000; stroke-width: 0.8"/>
      </g>
     </g>
     <g id="text_12">
      <!-- 0.75 -->
      <g transform="translate(20.878125 162.332508) scale(0.1 -0.1)">
       <defs>
        <path id="DejaVuSans-37" d="M 525 4666 
L 3525 4666 
L 3525 4397 
L 1831 0 
L 1172 0 
L 2766 4134 
L 525 4134 
L 525 4666 
z
" transform="scale(0.015625)"/>
       </defs>
       <use xlink:href="#DejaVuSans-30"/>
       <use xlink:href="#DejaVuSans-2e" x="63.623047"/>
       <use xlink:href="#DejaVuSans-37" x="95.410156"/>
       <use xlink:href="#DejaVuSans-35" x="159.033203"/>
      </g>
     </g>
    </g>
    <g id="ytick_5">
     <g id="line2d_11">
      <g>
       <use xlink:href="#m1053d020b9" x="50.14375" y="126.455058" style="stroke: #000000; stroke-width: 0.8"/>
      </g>
     </g>
     <g id="text_13">
      <!-- 1.00 -->
      <g transform="translate(20.878125 130.254277) scale(0.1 -0.1)">
       <use xlink:href="#DejaVuSans-31"/>
       <use xlink:href="#DejaVuSans-2e" x="63.623047"/>
       <use xlink:href="#DejaVuSans-30" x="95.410156"/>
       <use xlink:href="#DejaVuSans-30" x="159.033203"/>
      </g>
     </g>
    </g>
    <g id="ytick_6">
     <g id="line2d_12">
      <g>
       <use xlink:href="#m1053d020b9" x="50.14375" y="94.376827" style="stroke: #000000; stroke-width: 0.8"/>
      </g>
     </g>
     <g id="text_14">
      <!-- 1.25 -->
      <g transform="translate(20.878125 98.176045) scale(0.1 -0.1)">
       <use xlink:href="#DejaVuSans-31"/>
       <use xlink:href="#DejaVuSans-2e" x="63.623047"/>
       <use xlink:href="#DejaVuSans-32" x="95.410156"/>
       <use xlink:href="#DejaVuSans-35" x="159.033203"/>
      </g>
     </g>
    </g>
    <g id="ytick_7">
     <g id="line2d_13">
      <g>
       <use xlink:href="#m1053d020b9" x="50.14375" y="62.298595" style="stroke: #000000; stroke-width: 0.8"/>
      </g>
     </g>
     <g id="text_15">
      <!-- 1.50 -->
      <g transform="translate(20.878125 66.097814) scale(0.1 -0.1)">
       <use xlink:href="#DejaVuSans-31"/>
       <use xlink:href="#DejaVuSans-2e" x="63.623047"/>
       <use xlink:href="#DejaVuSans-35" x="95.410156"/>
       <use xlink:href="#DejaVuSans-30" x="159.033203"/>
      </g>
     </g>
    </g>
    <g id="ytick_8">
     <g id="line2d_14">
      <g>
       <use xlink:href="#m1053d020b9" x="50.14375" y="30.220364" style="stroke: #000000; stroke-width: 0.8"/>
      </g>
     </g>
     <g id="text_16">
      <!-- 1.75 -->
      <g transform="translate(20.878125 34.019582) scale(0.1 -0.1)">
       <use xlink:href="#DejaVuSans-31"/>
       <use xlink:href="#DejaVuSans-2e" x="63.623047"/>
       <use xlink:href="#DejaVuSans-37" x="95.410156"/>
       <use xlink:href="#DejaVuSans-35" x="159.033203"/>
      </g>
     </g>
    </g>
    <g id="text_17">
     <!-- Vout (V), Vin (V) -->
     <g transform="translate(14.798438 180.342719) rotate(-90) scale(0.1 -0.1)">
      <defs>
       <path id="DejaVuSans-56" d="M 1831 0 
L 50 4666 
L 709 4666 
L 2188 738 
L 3669 4666 
L 4325 4666 
L 2547 0 
L 1831 0 
z
" transform="scale(0.015625)"/>
       <path id="DejaVuSans-6f" d="M 1959 3097 
Q 1497 3097 1228 2736 
Q 959 2375 959 1747 
Q 959 1119 1226 758 
Q 1494 397 1959 397 
Q 2419 397 2687 759 
Q 2956 1122 2956 1747 
Q 2956 2369 2687 2733 
Q 2419 3097 1959 3097 
z
M 1959 3584 
Q 2709 3584 3137 3096 
Q 3566 2609 3566 1747 
Q 3566 888 3137 398 
Q 2709 -91 1959 -91 
Q 1206 -91 779 398 
Q 353 888 353 1747 
Q 353 2609 779 3096 
Q 1206 3584 1959 3584 
z
" transform="scale(0.015625)"/>
       <path id="DejaVuSans-75" d="M 544 1381 
L 544 3500 
L 1119 3500 
L 1119 1403 
Q 1119 906 1312 657 
Q 1506 409 1894 409 
Q 2359 409 2629 706 
Q 2900 1003 2900 1516 
L 2900 3500 
L 3475 3500 
L 3475 0 
L 2900 0 
L 2900 538 
Q 2691 219 2414 64 
Q 2138 -91 1772 -91 
Q 1169 -91 856 284 
Q 544 659 544 1381 
z
M 1991 3584 
L 1991 3584 
z
" transform="scale(0.015625)"/>
       <path id="DejaVuSans-74" d="M 1172 4494 
L 1172 3500 
L 2356 3500 
L 2356 3053 
L 1172 3053 
L 1172 1153 
Q 1172 725 1289 603 
Q 1406 481 1766 481 
L 2356 481 
L 2356 0 
L 1766 0 
Q 1100 0 847 248 
Q 594 497 594 1153 
L 594 3053 
L 172 3053 
L 172 3500 
L 594 3500 
L 594 4494 
L 1172 4494 
z
" transform="scale(0.015625)"/>
       <path id="DejaVuSans-2c" d="M 750 794 
L 1409 794 
L 1409 256 
L 897 -744 
L 494 -744 
L 750 256 
L 750 794 
z
" transform="scale(0.015625)"/>
       <path id="DejaVuSans-6e" d="M 3513 2113 
L 3513 0 
L 2938 0 
L 2938 2094 
Q 2938 2591 2744 2837 
Q 2550 3084 2163 3084 
Q 1697 3084 1428 2787 
Q 1159 2491 1159 1978 
L 1159 0 
L 581 0 
L 581 3500 
L 1159 3500 
L 1159 2956 
Q 1366 3272 1645 3428 
Q 1925 3584 2291 3584 
Q 2894 3584 3203 3211 
Q 3513 2838 3513 2113 
z
" transform="scale(0.015625)"/>
      </defs>
      <use xlink:href="#DejaVuSans-56"/>
      <use xlink:href="#DejaVuSans-6f" x="60.658203"/>
      <use xlink:href="#DejaVuSans-75" x="121.839844"/>
      <use xlink:href="#DejaVuSans-74" x="185.21875"/>
      <use xlink:href="#DejaVuSans-20" x="224.427734"/>
      <use xlink:href="#DejaVuSans-28" x="256.214844"/>
      <use xlink:href="#DejaVuSans-56" x="295.228516"/>
      <use xlink:href="#DejaVuSans-29" x="363.636719"/>
      <use xlink:href="#DejaVuSans-2c" x="402.650391"/>
      <use xlink:href="#DejaVuSans-20" x="434.4375"/>
      <use xlink:href="#DejaVuSans-56" x="466.224609"/>
      <use xlink:href="#DejaVuSans-69" x="532.382812"/>
      <use xlink:href="#DejaVuSans-6e" x="560.166016"/>
      <use xlink:href="#DejaVuSans-20" x="623.544922"/>
      <use xlink:href="#DejaVuSans-28" x="655.332031"/>
      <use xlink:href="#DejaVuSans-56" x="694.345703"/>
      <use xlink:href="#DejaVuSans-29" x="762.753906"/>
     </g>
    </g>
   </g>
   <g id="line2d_15">
    <path d="M 66.376477 23.804674 
L 66.584256 22.515483 
L 66.792035 22.099631 
L 67.856902 21.269228 
L 69.15552 19.296 
L 69.804829 29.467582 
L 70.454138 87.9662 
L 71.103447 205.410109 
L 71.752757 257.959205 
L 72.402066 252.189871 
L 72.869568 255.032277 
L 72.934499 254.906033 
L 73.064361 254.774244 
L 76.440768 254.768148 
L 137.800477 254.767983 
L 137.99527 255.33183 
L 139.42375 255.626099 
L 140.073059 255.97308 
L 140.722368 257.094379 
L 141.371677 257.577405 
L 142.020986 240.448016 
L 142.670295 182.536258 
L 143.319605 79.33523 
L 143.968914 26.799798 
L 144.358499 25.123498 
L 144.488361 24.37034 
L 144.748085 23.867102 
L 145.267532 23.789915 
L 149.163386 23.804694 
L 196.238295 23.804719 
L 196.433088 22.576219 
L 196.692812 22.04067 
L 197.861568 21.11298 
L 198.510877 20.059462 
L 199.160186 19.654882 
L 199.809495 36.893104 
L 200.458805 109.436274 
L 201.108114 224.751623 
L 201.757423 259.943281 
L 202.406732 251.133456 
L 202.731386 255.131185 
L 202.796317 254.957746 
L 202.926179 254.776595 
L 205.653277 254.767623 
L 267.662295 254.767983 
L 267.857088 255.33183 
L 269.285568 255.626099 
L 269.934877 255.97308 
L 270.584186 257.094379 
L 271.233495 257.577405 
L 271.882805 240.448016 
L 272.532114 182.536258 
L 273.181423 79.33523 
L 273.830732 26.799798 
L 274.220317 25.123498 
L 274.350179 24.37034 
L 274.609903 23.867102 
L 275.12935 23.789915 
L 279.025205 23.804694 
L 326.100114 23.804719 
L 326.294906 22.576219 
L 326.55463 22.04067 
L 327.723386 21.11298 
L 328.372695 20.059462 
L 329.022005 19.654882 
L 329.671314 36.893104 
L 330.320623 109.436274 
L 330.969932 224.751623 
L 331.619241 259.943281 
L 332.26855 251.133456 
L 332.593205 255.131185 
L 332.658135 254.957746 
L 332.787997 254.776595 
L 335.515095 254.767623 
L 391.031023 254.767983 
L 391.031023 254.767983 
" clip-path="url(#p64446e2e73)" style="fill: none; stroke: #1f77b4; stroke-width: 1.5; stroke-linecap: square"/>
   </g>
   <g id="line2d_16">
    <path d="M 66.376477 254.767984 
L 72.934499 23.804717 
L 137.800477 23.804717 
L 144.358499 254.767984 
L 196.238295 254.767984 
L 202.796317 23.804717 
L 267.662295 23.804717 
L 274.220317 254.767984 
L 326.100114 254.767984 
L 332.658135 23.804717 
L 391.031023 23.804717 
L 391.031023 23.804717 
" clip-path="url(#p64446e2e73)" style="fill: none; stroke: #ff7f0e; stroke-width: 1.5; stroke-linecap: square"/>
   </g>
   <g id="line2d_17">
    <path d="M 66.376477 23.804713 
L 66.584256 22.675775 
L 66.792035 22.406717 
L 67.856902 21.903766 
L 68.506211 21.443005 
L 69.15552 24.456307 
L 69.804829 57.692269 
L 70.454138 162.837059 
L 71.103447 249.214678 
L 71.752757 256.207332 
L 72.402066 253.127821 
L 72.869568 254.87229 
L 72.934499 254.818161 
L 73.324085 254.768646 
L 127.086877 254.767983 
L 137.800477 254.767983 
L 137.99527 255.24775 
L 138.774441 255.320203 
L 139.42375 255.434721 
L 140.722368 256.163604 
L 141.371677 249.183955 
L 142.020986 203.31044 
L 142.670295 98.628611 
L 143.319605 30.678741 
L 143.968914 24.023341 
L 144.293568 25.284123 
L 144.488361 24.137138 
L 144.748085 23.805505 
L 196.238295 23.804719 
L 196.433088 22.716534 
L 196.692812 22.367234 
L 197.212259 22.174133 
L 198.510877 21.459238 
L 199.160186 27.07707 
L 199.809495 73.821288 
L 200.458805 193.569686 
L 201.108114 256.520858 
L 201.757423 252.955431 
L 202.406732 254.947185 
L 202.731386 254.02313 
L 202.926179 254.774596 
L 206.302586 254.768303 
L 267.662295 254.767983 
L 267.857088 255.24775 
L 268.636259 255.320203 
L 269.285568 255.434721 
L 270.584186 256.163604 
L 271.233495 249.183955 
L 271.882805 203.31044 
L 272.532114 98.628611 
L 273.181423 30.678741 
L 273.830732 24.023341 
L 274.155386 25.284123 
L 274.350179 24.137138 
L 274.609903 23.805505 
L 326.100114 23.804719 
L 326.294906 22.716534 
L 326.55463 22.367234 
L 327.074077 22.174133 
L 328.372695 21.459238 
L 329.022005 27.07707 
L 329.671314 73.821288 
L 330.320623 193.569686 
L 330.969932 256.520858 
L 331.619241 252.955431 
L 332.26855 254.947185 
L 332.593205 254.02313 
L 332.787997 254.774596 
L 336.164405 254.768303 
L 391.031023 254.767983 
L 391.031023 254.767983 
" clip-path="url(#p64446e2e73)" style="fill: none; stroke: #2ca02c; stroke-width: 1.5; stroke-linecap: square"/>
   </g>
   <g id="line2d_18">
    <path d="M 66.376477 254.767984 
L 72.934499 23.804717 
L 137.800477 23.804717 
L 144.358499 254.767984 
L 196.238295 254.767984 
L 202.796317 23.804717 
L 267.662295 23.804717 
L 274.220317 254.767984 
L 326.100114 254.767984 
L 332.658135 23.804717 
L 391.031023 23.804717 
L 391.031023 23.804717 
" clip-path="url(#p64446e2e73)" style="fill: none; stroke: #d62728; stroke-width: 1.5; stroke-linecap: square"/>
   </g>
   <g id="line2d_19">
    <path d="M 66.376477 23.804719 
L 66.480367 23.098317 
L 66.584256 22.828076 
L 66.792035 22.66624 
L 67.856902 22.355502 
L 68.506211 22.993349 
L 69.15552 32.680772 
L 69.804829 95.037009 
L 70.454138 225.411328 
L 71.103447 261.216 
L 71.752757 250.190432 
L 72.402066 256.725603 
L 72.869568 252.999261 
L 73.064361 254.84316 
L 73.324085 254.735887 
L 74.492841 254.752645 
L 77.090077 254.763835 
L 87.479023 254.767962 
L 137.800477 254.767984 
L 137.99527 255.174896 
L 138.774441 255.219614 
L 139.42375 255.33615 
L 140.073059 255.639385 
L 140.722368 253.513489 
L 141.371677 237.246944 
L 142.020986 156.411789 
L 142.670295 47.070703 
L 143.319605 20.630285 
L 143.968914 26.837799 
L 144.488361 23.925419 
L 144.748085 23.79238 
L 147.864768 23.805111 
L 196.238295 23.804719 
L 196.433088 22.84942 
L 196.692812 22.641767 
L 197.861568 22.310178 
L 198.510877 23.863985 
L 199.160186 38.207784 
L 199.809495 119.769994 
L 200.458805 238.388856 
L 201.108114 259.628275 
L 201.757423 251.115374 
L 202.406732 256.263724 
L 202.731386 253.473134 
L 202.926179 254.823429 
L 203.185903 254.74431 
L 205.003968 254.776133 
L 210.198441 254.768579 
L 267.662295 254.767984 
L 267.857088 255.174896 
L 268.636259 255.219614 
L 269.285568 255.33615 
L 269.934877 255.639385 
L 270.584186 253.513489 
L 271.233495 237.246944 
L 271.882805 156.411789 
L 272.532114 47.070703 
L 273.181423 20.630285 
L 273.830732 26.837799 
L 274.350179 23.925419 
L 274.609903 23.79238 
L 277.726586 23.805111 
L 326.100114 23.804719 
L 326.294906 22.84942 
L 326.55463 22.641767 
L 327.723386 22.310178 
L 328.372695 23.863985 
L 329.022005 38.207784 
L 329.671314 119.769994 
L 330.320623 238.388856 
L 330.969932 259.628275 
L 331.619241 251.115374 
L 332.26855 256.263724 
L 332.593205 253.473134 
L 332.787997 254.823429 
L 333.047721 254.74431 
L 334.865786 254.776133 
L 340.060259 254.768579 
L 391.031023 254.767984 
L 391.031023 254.767984 
" clip-path="url(#p64446e2e73)" style="fill: none; stroke: #9467bd; stroke-width: 1.5; stroke-linecap: square"/>
   </g>
   <g id="line2d_20">
    <path d="M 66.376477 254.767984 
L 72.934499 23.804717 
L 137.800477 23.804717 
L 144.358499 254.767984 
L 196.238295 254.767984 
L 202.796317 23.804717 
L 267.662295 23.804717 
L 274.220317 254.767984 
L 326.100114 254.767984 
L 332.658135 23.804717 
L 391.031023 23.804717 
L 391.031023 23.804717 
" clip-path="url(#p64446e2e73)" style="fill: none; stroke: #8c564b; stroke-width: 1.5; stroke-linecap: square"/>
   </g>
   <g id="line2d_21">
    <path d="M 66.376477 23.804685 
L 66.584256 22.441765 
L 66.792035 21.925754 
L 68.506211 20.238978 
L 69.15552 20.878913 
L 69.804829 35.847583 
L 70.454138 97.477039 
L 71.103447 206.51041 
L 71.752757 256.849126 
L 72.402066 252.709479 
L 72.934499 254.593018 
L 73.064361 254.735146 
L 73.843532 254.76553 
L 92.673495 254.767983 
L 137.800477 254.767983 
L 137.99527 255.419265 
L 138.254994 255.543664 
L 139.42375 255.839569 
L 140.073059 256.305349 
L 140.722368 257.203369 
L 141.371677 254.658831 
L 142.020986 230.959644 
L 142.670295 167.606833 
L 143.319605 72.59776 
L 143.968914 27.517884 
L 144.358499 25.507154 
L 144.488361 24.651447 
L 144.748085 23.970214 
L 145.267532 23.779573 
L 147.864768 23.804589 
L 196.238295 23.80472 
L 196.433088 22.51398 
L 196.692812 21.855324 
L 197.861568 20.873324 
L 198.510877 20.074698 
L 199.160186 22.073737 
L 199.809495 44.715999 
L 200.458805 118.713928 
L 201.108114 223.636614 
L 201.757423 258.665865 
L 202.406732 251.906881 
L 202.796317 254.592594 
L 202.926179 254.735066 
L 203.70535 254.765524 
L 222.535314 254.767983 
L 267.662295 254.767983 
L 267.857088 255.419265 
L 268.116812 255.543664 
L 269.285568 255.839569 
L 269.934877 256.305349 
L 270.584186 257.203369 
L 271.233495 254.658831 
L 271.882805 230.959644 
L 272.532114 167.606833 
L 273.181423 72.59776 
L 273.830732 27.517884 
L 274.220317 25.507154 
L 274.350179 24.651447 
L 274.609903 23.970214 
L 275.12935 23.779573 
L 277.726586 23.804589 
L 326.100114 23.80472 
L 326.294906 22.51398 
L 326.55463 21.855324 
L 327.723386 20.873324 
L 328.372695 20.074698 
L 329.022005 22.073737 
L 329.671314 44.715999 
L 330.320623 118.713928 
L 330.969932 223.636614 
L 331.619241 258.665865 
L 332.26855 251.906881 
L 332.658135 254.592594 
L 332.787997 254.735066 
L 333.567168 254.765524 
L 352.397132 254.767983 
L 391.031023 254.767983 
L 391.031023 254.767983 
" clip-path="url(#p64446e2e73)" style="fill: none; stroke: #e377c2; stroke-width: 1.5; stroke-linecap: square"/>
   </g>
   <g id="line2d_22">
    <path d="M 66.376477 254.767984 
L 72.934499 23.804717 
L 137.800477 23.804717 
L 144.358499 254.767984 
L 196.238295 254.767984 
L 202.796317 23.804717 
L 267.662295 23.804717 
L 274.220317 254.767984 
L 326.100114 254.767984 
L 332.658135 23.804717 
L 391.031023 23.804717 
L 391.031023 23.804717 
" clip-path="url(#p64446e2e73)" style="fill: none; stroke: #7f7f7f; stroke-width: 1.5; stroke-linecap: square"/>
   </g>
   <g id="line2d_23">
    <path d="M 66.376477 23.804713 
L 66.584256 22.589083 
L 66.792035 22.229412 
L 67.856902 21.674442 
L 68.506211 21.645679 
L 69.15552 27.205962 
L 69.804829 62.700213 
L 70.454138 163.98094 
L 71.103447 247.294701 
L 71.752757 256.246286 
L 72.402066 253.035051 
L 72.934499 254.697505 
L 73.324085 254.769757 
L 94.621423 254.767983 
L 137.800477 254.767983 
L 137.99527 255.328305 
L 139.42375 255.649755 
L 140.073059 256.062479 
L 140.722368 255.257669 
L 141.371677 245.324703 
L 142.020986 195.669427 
L 142.670295 92.075628 
L 143.319605 30.479471 
L 143.968914 24.660876 
L 144.293568 25.421922 
L 144.488361 24.27783 
L 144.748085 23.848495 
L 145.916841 23.808848 
L 158.903023 23.804719 
L 196.238295 23.804719 
L 196.433088 22.643777 
L 196.692812 22.17953 
L 197.861568 21.589795 
L 198.510877 22.029281 
L 199.160186 30.540023 
L 199.809495 79.114838 
L 200.458805 192.746402 
L 201.108114 255.26393 
L 201.757423 253.398367 
L 202.406732 254.449725 
L 202.731386 254.088009 
L 202.926179 254.728229 
L 203.185903 254.777527 
L 206.951895 254.768415 
L 267.662295 254.767983 
L 267.857088 255.328305 
L 269.285568 255.649755 
L 269.934877 256.062479 
L 270.584186 255.257669 
L 271.233495 245.324703 
L 271.882805 195.669427 
L 272.532114 92.075628 
L 273.181423 30.479471 
L 273.830732 24.660876 
L 274.155386 25.421922 
L 274.350179 24.27783 
L 274.609903 23.848495 
L 275.778659 23.808848 
L 288.764841 23.804719 
L 326.100114 23.804719 
L 326.294906 22.643777 
L 326.55463 22.17953 
L 327.723386 21.589795 
L 328.372695 22.029281 
L 329.022005 30.540023 
L 329.671314 79.114838 
L 330.320623 192.746402 
L 330.969932 255.26393 
L 331.619241 253.398367 
L 332.26855 254.449725 
L 332.593205 254.088009 
L 332.787997 254.728229 
L 333.047721 254.777527 
L 336.813714 254.768415 
L 391.031023 254.767983 
L 391.031023 254.767983 
" clip-path="url(#p64446e2e73)" style="fill: none; stroke: #bcbd22; stroke-width: 1.5; stroke-linecap: square"/>
   </g>
   <g id="line2d_24">
    <path d="M 66.376477 254.767984 
L 72.934499 23.804717 
L 137.800477 23.804717 
L 144.358499 254.767984 
L 196.238295 254.767984 
L 202.796317 23.804717 
L 267.662295 23.804717 
L 274.220317 254.767984 
L 326.100114 254.767984 
L 332.658135 23.804717 
L 391.031023 23.804717 
L 391.031023 23.804717 
" clip-path="url(#p64446e2e73)" style="fill: none; stroke: #17becf; stroke-width: 1.5; stroke-linecap: square"/>
   </g>
   <g id="line2d_25">
    <path d="M 66.376477 23.80472 
L 66.584256 22.733628 
L 66.792035 22.497655 
L 67.856902 22.231407 
L 68.506211 24.253959 
L 69.15552 36.570124 
L 69.804829 94.919227 
L 70.454138 217.12912 
L 71.103447 260.137119 
L 71.752757 250.850043 
L 72.402066 255.948354 
L 72.869568 253.428392 
L 73.064361 254.749568 
L 73.843532 254.764544 
L 86.829714 254.767982 
L 137.800477 254.767983 
L 137.99527 255.248397 
L 138.774441 255.346204 
L 139.42375 255.560853 
L 140.073059 255.405457 
L 140.722368 251.389782 
L 141.371677 232.90077 
L 142.020986 155.36873 
L 142.670295 50.97354 
L 143.319605 21.607791 
L 143.968914 26.484524 
L 144.488361 24.064691 
L 144.748085 23.802889 
L 167.99335 23.80472 
L 196.238295 23.80472 
L 196.433088 22.770301 
L 196.692812 22.463688 
L 197.212259 22.331401 
L 197.861568 22.296704 
L 198.510877 25.657555 
L 199.160186 42.511474 
L 199.809495 118.010428 
L 200.458805 232.158762 
L 201.108114 259.617406 
L 201.757423 251.153894 
L 202.406732 255.866573 
L 202.731386 253.670088 
L 202.926179 254.753076 
L 204.354659 254.769813 
L 228.379095 254.767983 
L 267.662295 254.767983 
L 267.857088 255.248397 
L 268.636259 255.346204 
L 269.285568 255.560853 
L 269.934877 255.405457 
L 270.584186 251.389782 
L 271.233495 232.90077 
L 271.882805 155.36873 
L 272.532114 50.97354 
L 273.181423 21.607791 
L 273.830732 26.484524 
L 274.350179 24.064691 
L 274.609903 23.802889 
L 297.855168 23.80472 
L 326.100114 23.80472 
L 326.294906 22.770301 
L 326.55463 22.463688 
L 327.074077 22.331401 
L 327.723386 22.296704 
L 328.372695 25.657555 
L 329.022005 42.511474 
L 329.671314 118.010428 
L 330.320623 232.158762 
L 330.969932 259.617406 
L 331.619241 251.153894 
L 332.26855 255.866573 
L 332.593205 253.670088 
L 332.787997 254.753076 
L 334.216477 254.769813 
L 358.240914 254.767983 
L 391.031023 254.767983 
L 391.031023 254.767983 
" clip-path="url(#p64446e2e73)" style="fill: none; stroke: #1f77b4; stroke-width: 1.5; stroke-linecap: square"/>
   </g>
   <g id="line2d_26">
    <path d="M 66.376477 254.767984 
L 72.934499 23.804717 
L 137.800477 23.804717 
L 144.358499 254.767984 
L 196.238295 254.767984 
L 202.796317 23.804717 
L 267.662295 23.804717 
L 274.220317 254.767984 
L 326.100114 254.767984 
L 332.658135 23.804717 
L 391.031023 23.804717 
L 391.031023 23.804717 
" clip-path="url(#p64446e2e73)" style="fill: none; stroke: #ff7f0e; stroke-width: 1.5; stroke-linecap: square"/>
   </g>
   <g id="line2d_27">
    <path d="M 66.376477 23.804721 
L 66.584256 22.381868 
L 66.792035 21.754283 
L 67.207593 21.227152 
L 67.856902 20.735203 
L 68.506211 20.495437 
L 69.15552 24.160212 
L 69.804829 43.79092 
L 70.454138 107.230686 
L 71.103447 206.362549 
L 71.752757 254.324156 
L 72.402066 253.405898 
L 72.869568 253.848656 
L 73.064361 254.562098 
L 73.324085 254.767588 
L 137.800477 254.767982 
L 137.99527 255.526932 
L 138.254994 255.779386 
L 138.774441 255.920805 
L 139.42375 256.232703 
L 140.073059 256.744389 
L 140.722368 256.224343 
L 141.371677 249.178397 
L 142.020986 217.175602 
L 143.319605 63.026686 
L 143.968914 28.293268 
L 144.358499 26.047178 
L 144.488361 25.07528 
L 144.748085 24.168798 
L 145.267532 23.785032 
L 148.514077 23.804733 
L 196.238295 23.804729 
L 196.433088 22.463926 
L 196.692812 21.670341 
L 197.212259 21.10295 
L 197.861568 20.625027 
L 198.510877 20.717061 
L 199.160186 26.326462 
L 199.809495 53.934503 
L 200.458805 128.280699 
L 201.108114 222.023638 
L 201.757423 256.362257 
L 202.406732 252.803163 
L 202.926179 254.562689 
L 203.185903 254.767589 
L 267.662295 254.767982 
L 267.857088 255.526932 
L 268.116812 255.779386 
L 268.636259 255.920805 
L 269.285568 256.232703 
L 269.934877 256.744389 
L 270.584186 256.224343 
L 271.233495 249.178397 
L 271.882805 217.175602 
L 273.181423 63.026686 
L 273.830732 28.293268 
L 274.220317 26.047178 
L 274.350179 25.07528 
L 274.609903 24.168798 
L 275.12935 23.785032 
L 278.375895 23.804733 
L 326.100114 23.804729 
L 326.294906 22.463926 
L 326.55463 21.670341 
L 327.074077 21.10295 
L 327.723386 20.625027 
L 328.372695 20.717061 
L 329.022005 26.326462 
L 329.671314 53.934503 
L 330.320623 128.280699 
L 330.969932 222.023638 
L 331.619241 256.362257 
L 332.26855 252.803163 
L 332.787997 254.562689 
L 333.047721 254.767589 
L 391.031023 254.767982 
L 391.031023 254.767982 
" clip-path="url(#p64446e2e73)" style="fill: none; stroke: #2ca02c; stroke-width: 1.5; stroke-linecap: square"/>
   </g>
   <g id="line2d_28">
    <path d="M 66.376477 254.767984 
L 72.934499 23.804717 
L 137.800477 23.804717 
L 144.358499 254.767984 
L 196.238295 254.767984 
L 202.796317 23.804717 
L 267.662295 23.804717 
L 274.220317 254.767984 
L 326.100114 254.767984 
L 332.658135 23.804717 
L 391.031023 23.804717 
L 391.031023 23.804717 
" clip-path="url(#p64446e2e73)" style="fill: none; stroke: #d62728; stroke-width: 1.5; stroke-linecap: square"/>
   </g>
   <g id="line2d_29">
    <path d="M 66.376477 23.804781 
L 66.584256 22.511028 
L 66.792035 22.040646 
L 67.207593 21.71357 
L 67.856902 21.502696 
L 68.506211 22.960966 
L 69.15552 32.006749 
L 69.804829 67.492203 
L 71.103447 242.713425 
L 71.752757 256.123972 
L 72.402066 252.915194 
L 73.064361 254.687383 
L 73.324085 254.774915 
L 79.038005 254.767963 
L 137.800477 254.767975 
L 137.99527 255.438668 
L 138.254994 255.609842 
L 138.774441 255.728148 
L 139.42375 256.017954 
L 140.073059 255.890324 
L 140.722368 252.478251 
L 141.371677 238.127189 
L 142.020986 184.752526 
L 142.670295 85.572381 
L 143.319605 30.956866 
L 143.968914 25.298644 
L 144.293568 25.680792 
L 144.488361 24.496658 
L 144.748085 23.937429 
L 145.267532 23.784114 
L 147.864768 23.804671 
L 196.238295 23.804781 
L 196.433088 22.578725 
L 196.692812 21.978107 
L 197.212259 21.641914 
L 197.861568 21.542752 
L 198.510877 24.022885 
L 199.160186 36.116264 
L 199.809495 83.49884 
L 200.458805 187.530989 
L 201.108114 251.739763 
L 201.757423 254.099966 
L 202.406732 253.75771 
L 202.731386 253.998667 
L 202.926179 254.644218 
L 203.185903 254.778618 
L 206.951895 254.768115 
L 267.662295 254.767975 
L 267.857088 255.438668 
L 268.116812 255.609842 
L 268.636259 255.728148 
L 269.285568 256.017954 
L 269.934877 255.890324 
L 270.584186 252.478251 
L 271.233495 238.127189 
L 271.882805 184.752526 
L 272.532114 85.572381 
L 273.181423 30.956866 
L 273.830732 25.298644 
L 274.155386 25.680792 
L 274.350179 24.496658 
L 274.609903 23.937429 
L 275.12935 23.784114 
L 277.726586 23.804671 
L 326.100114 23.804781 
L 326.294906 22.578725 
L 326.55463 21.978107 
L 327.074077 21.641914 
L 327.723386 21.542752 
L 328.372695 24.022885 
L 329.022005 36.116264 
L 329.671314 83.49884 
L 330.320623 187.530989 
L 330.969932 251.739763 
L 331.619241 254.099966 
L 332.26855 253.75771 
L 332.593205 253.998667 
L 332.787997 254.644218 
L 333.047721 254.778618 
L 336.813714 254.768115 
L 391.031023 254.767975 
L 391.031023 254.767975 
" clip-path="url(#p64446e2e73)" style="fill: none; stroke: #9467bd; stroke-width: 1.5; stroke-linecap: square"/>
   </g>
   <g id="line2d_30">
    <path d="M 66.376477 254.767984 
L 72.934499 23.804717 
L 137.800477 23.804717 
L 144.358499 254.767984 
L 196.238295 254.767984 
L 202.796317 23.804717 
L 267.662295 23.804717 
L 274.220317 254.767984 
L 326.100114 254.767984 
L 332.658135 23.804717 
L 391.031023 23.804717 
L 391.031023 23.804717 
" clip-path="url(#p64446e2e73)" style="fill: none; stroke: #8c564b; stroke-width: 1.5; stroke-linecap: square"/>
   </g>
   <g id="line2d_31">
    <path d="M 66.376477 23.805177 
L 66.584256 22.642118 
L 66.792035 22.305893 
L 67.207593 22.131618 
L 67.856902 22.585301 
L 68.506211 27.16034 
L 69.15552 42.47533 
L 69.804829 93.999272 
L 70.454138 203.164639 
L 71.103447 255.95812 
L 71.752757 252.257615 
L 72.402066 254.635985 
L 72.869568 253.870578 
L 73.064361 254.674692 
L 73.324085 254.7837 
L 75.791459 254.769262 
L 110.204841 254.767906 
L 137.800477 254.767906 
L 137.99527 255.366358 
L 138.774441 255.607589 
L 139.42375 255.663134 
L 140.073059 253.863405 
L 140.722368 246.678833 
L 141.371677 224.617436 
L 142.020986 150.199414 
L 142.670295 55.08649 
L 143.319605 23.993305 
L 143.968914 25.967434 
L 144.293568 25.372509 
L 144.488361 24.268829 
L 144.748085 23.85039 
L 145.916841 23.80933 
L 158.903023 23.805177 
L 196.238295 23.805177 
L 196.433088 22.69358 
L 196.692812 22.260638 
L 197.212259 22.119262 
L 197.861568 23.050223 
L 198.510877 29.289328 
L 199.160186 48.552401 
L 199.809495 114.76429 
L 200.458805 220.643793 
L 201.108114 257.580623 
L 201.757423 251.822152 
L 202.406732 254.930429 
L 202.731386 253.892192 
L 202.926179 254.676937 
L 203.185903 254.78332 
L 205.653277 254.769229 
L 240.715968 254.767906 
L 267.662295 254.767906 
L 267.857088 255.366358 
L 268.636259 255.607589 
L 269.285568 255.663134 
L 269.934877 253.863405 
L 270.584186 246.678833 
L 271.233495 224.617436 
L 271.882805 150.199414 
L 272.532114 55.08649 
L 273.181423 23.993305 
L 273.830732 25.967434 
L 274.155386 25.372509 
L 274.350179 24.268829 
L 274.609903 23.85039 
L 275.778659 23.80933 
L 288.764841 23.805177 
L 326.100114 23.805177 
L 326.294906 22.69358 
L 326.55463 22.260638 
L 327.074077 22.119262 
L 327.723386 23.050223 
L 328.372695 29.289328 
L 329.022005 48.552401 
L 329.671314 114.76429 
L 330.320623 220.643793 
L 330.969932 257.580623 
L 331.619241 251.822152 
L 332.26855 254.930429 
L 332.593205 253.892192 
L 332.787997 254.676937 
L 333.047721 254.78332 
L 335.515095 254.769229 
L 370.577786 254.767906 
L 391.031023 254.767906 
L 391.031023 254.767906 
" clip-path="url(#p64446e2e73)" style="fill: none; stroke: #e377c2; stroke-width: 1.5; stroke-linecap: square"/>
   </g>
   <g id="line2d_32">
    <path d="M 66.376477 254.767984 
L 72.934499 23.804717 
L 137.800477 23.804717 
L 144.358499 254.767984 
L 196.238295 254.767984 
L 202.796317 23.804717 
L 267.662295 23.804717 
L 274.220317 254.767984 
L 326.100114 254.767984 
L 332.658135 23.804717 
L 391.031023 23.804717 
L 391.031023 23.804717 
" clip-path="url(#p64446e2e73)" style="fill: none; stroke: #7f7f7f; stroke-width: 1.5; stroke-linecap: square"/>
   </g>
   <g id="patch_3">
    <path d="M 50.14375 273.312 
L 50.14375 7.2 
" style="fill: none; stroke: #000000; stroke-width: 0.8; stroke-linejoin: miter; stroke-linecap: square"/>
   </g>
   <g id="patch_4">
    <path d="M 407.26375 273.312 
L 407.26375 7.2 
" style="fill: none; stroke: #000000; stroke-width: 0.8; stroke-linejoin: miter; stroke-linecap: square"/>
   </g>
   <g id="patch_5">
    <path d="M 50.14375 273.312 
L 407.26375 273.312 
" style="fill: none; stroke: #000000; stroke-width: 0.8; stroke-linejoin: miter; stroke-linecap: square"/>
   </g>
   <g id="patch_6">
    <path d="M 50.14375 7.2 
L 407.26375 7.2 
" style="fill: none; stroke: #000000; stroke-width: 0.8; stroke-linejoin: miter; stroke-linecap: square"/>
   </g>
   <g id="legend_1">
    <g id="patch_7">
     <path d="M 423.54855 274.40625 
L 638.840738 274.40625 
Q 640.840738 274.40625 640.840738 272.40625 
L 640.840738 9.2 
Q 640.840738 7.2 638.840738 7.2 
L 423.54855 7.2 
Q 421.54855 7.2 421.54855 9.2 
L 421.54855 272.40625 
Q 421.54855 274.40625 423.54855 274.40625 
z
" style="fill: #ffffff; opacity: 0.8; stroke: #cccccc; stroke-linejoin: miter"/>
    </g>
    <g id="line2d_33">
     <path d="M 425.54855 15.298437 
L 435.54855 15.298437 
L 445.54855 15.298437 
" style="fill: none; stroke: #1f77b4; stroke-width: 1.5; stroke-linecap: square"/>
    </g>
    <g id="text_18">
     <!-- corner = ss, temperature = -40 -->
     <g transform="translate(453.54855 18.798437) scale(0.1 -0.1)">
      <defs>
       <path id="DejaVuSans-63" d="M 3122 3366 
L 3122 2828 
Q 2878 2963 2633 3030 
Q 2388 3097 2138 3097 
Q 1578 3097 1268 2742 
Q 959 2388 959 1747 
Q 959 1106 1268 751 
Q 1578 397 2138 397 
Q 2388 397 2633 464 
Q 2878 531 3122 666 
L 3122 134 
Q 2881 22 2623 -34 
Q 2366 -91 2075 -91 
Q 1284 -91 818 406 
Q 353 903 353 1747 
Q 353 2603 823 3093 
Q 1294 3584 2113 3584 
Q 2378 3584 2631 3529 
Q 2884 3475 3122 3366 
z
" transform="scale(0.015625)"/>
       <path id="DejaVuSans-72" d="M 2631 2963 
Q 2534 3019 2420 3045 
Q 2306 3072 2169 3072 
Q 1681 3072 1420 2755 
Q 1159 2438 1159 1844 
L 1159 0 
L 581 0 
L 581 3500 
L 1159 3500 
L 1159 2956 
Q 1341 3275 1631 3429 
Q 1922 3584 2338 3584 
Q 2397 3584 2469 3576 
Q 2541 3569 2628 3553 
L 2631 2963 
z
" transform="scale(0.015625)"/>
       <path id="DejaVuSans-3d" d="M 678 2906 
L 4684 2906 
L 4684 2381 
L 678 2381 
L 678 2906 
z
M 678 1631 
L 4684 1631 
L 4684 1100 
L 678 1100 
L 678 1631 
z
" transform="scale(0.015625)"/>
       <path id="DejaVuSans-70" d="M 1159 525 
L 1159 -1331 
L 581 -1331 
L 581 3500 
L 1159 3500 
L 1159 2969 
Q 1341 3281 1617 3432 
Q 1894 3584 2278 3584 
Q 2916 3584 3314 3078 
Q 3713 2572 3713 1747 
Q 3713 922 3314 415 
Q 2916 -91 2278 -91 
Q 1894 -91 1617 61 
Q 1341 213 1159 525 
z
M 3116 1747 
Q 3116 2381 2855 2742 
Q 2594 3103 2138 3103 
Q 1681 3103 1420 2742 
Q 1159 2381 1159 1747 
Q 1159 1113 1420 752 
Q 1681 391 2138 391 
Q 2594 391 2855 752 
Q 3116 1113 3116 1747 
z
" transform="scale(0.015625)"/>
       <path id="DejaVuSans-61" d="M 2194 1759 
Q 1497 1759 1228 1600 
Q 959 1441 959 1056 
Q 959 750 1161 570 
Q 1363 391 1709 391 
Q 2188 391 2477 730 
Q 2766 1069 2766 1631 
L 2766 1759 
L 2194 1759 
z
M 3341 1997 
L 3341 0 
L 2766 0 
L 2766 531 
Q 2569 213 2275 61 
Q 1981 -91 1556 -91 
Q 1019 -91 701 211 
Q 384 513 384 1019 
Q 384 1609 779 1909 
Q 1175 2209 1959 2209 
L 2766 2209 
L 2766 2266 
Q 2766 2663 2505 2880 
Q 2244 3097 1772 3097 
Q 1472 3097 1187 3025 
Q 903 2953 641 2809 
L 641 3341 
Q 956 3463 1253 3523 
Q 1550 3584 1831 3584 
Q 2591 3584 2966 3190 
Q 3341 2797 3341 1997 
z
" transform="scale(0.015625)"/>
       <path id="DejaVuSans-2d" d="M 313 2009 
L 1997 2009 
L 1997 1497 
L 313 1497 
L 313 2009 
z
" transform="scale(0.015625)"/>
      </defs>
      <use xlink:href="#DejaVuSans-63"/>
      <use xlink:href="#DejaVuSans-6f" x="54.980469"/>
      <use xlink:href="#DejaVuSans-72" x="116.162109"/>
      <use xlink:href="#DejaVuSans-6e" x="155.525391"/>
      <use xlink:href="#DejaVuSans-65" x="218.904297"/>
      <use xlink:href="#DejaVuSans-72" x="280.427734"/>
      <use xlink:href="#DejaVuSans-20" x="321.541016"/>
      <use xlink:href="#DejaVuSans-3d" x="353.328125"/>
      <use xlink:href="#DejaVuSans-20" x="437.117188"/>
      <use xlink:href="#DejaVuSans-73" x="468.904297"/>
      <use xlink:href="#DejaVuSans-73" x="521.003906"/>
      <use xlink:href="#DejaVuSans-2c" x="573.103516"/>
      <use xlink:href="#DejaVuSans-20" x="604.890625"/>
      <use xlink:href="#DejaVuSans-74" x="636.677734"/>
      <use xlink:href="#DejaVuSans-65" x="675.886719"/>
      <use xlink:href="#DejaVuSans-6d" x="737.410156"/>
      <use xlink:href="#DejaVuSans-70" x="834.822266"/>
      <use xlink:href="#DejaVuSans-65" x="898.298828"/>
      <use xlink:href="#DejaVuSans-72" x="959.822266"/>
      <use xlink:href="#DejaVuSans-61" x="1000.935547"/>
      <use xlink:href="#DejaVuSans-74" x="1062.214844"/>
      <use xlink:href="#DejaVuSans-75" x="1101.423828"/>
      <use xlink:href="#DejaVuSans-72" x="1164.802734"/>
      <use xlink:href="#DejaVuSans-65" x="1203.666016"/>
      <use xlink:href="#DejaVuSans-20" x="1265.189453"/>
      <use xlink:href="#DejaVuSans-3d" x="1296.976562"/>
      <use xlink:href="#DejaVuSans-20" x="1380.765625"/>
      <use xlink:href="#DejaVuSans-2d" x="1412.552734"/>
      <use xlink:href="#DejaVuSans-34" x="1448.636719"/>
      <use xlink:href="#DejaVuSans-30" x="1512.259766"/>
     </g>
    </g>
    <g id="line2d_34">
     <path d="M 425.54855 29.976562 
L 435.54855 29.976562 
L 445.54855 29.976562 
" style="fill: none; stroke: #ff7f0e; stroke-width: 1.5; stroke-linecap: square"/>
    </g>
    <g id="text_19">
     <!-- corner = ss, temperature = -40 -->
     <g transform="translate(453.54855 33.476562) scale(0.1 -0.1)">
      <use xlink:href="#DejaVuSans-63"/>
      <use xlink:href="#DejaVuSans-6f" x="54.980469"/>
      <use xlink:href="#DejaVuSans-72" x="116.162109"/>
      <use xlink:href="#DejaVuSans-6e" x="155.525391"/>
      <use xlink:href="#DejaVuSans-65" x="218.904297"/>
      <use xlink:href="#DejaVuSans-72" x="280.427734"/>
      <use xlink:href="#DejaVuSans-20" x="321.541016"/>
      <use xlink:href="#DejaVuSans-3d" x="353.328125"/>
      <use xlink:href="#DejaVuSans-20" x="437.117188"/>
      <use xlink:href="#DejaVuSans-73" x="468.904297"/>
      <use xlink:href="#DejaVuSans-73" x="521.003906"/>
      <use xlink:href="#DejaVuSans-2c" x="573.103516"/>
      <use xlink:href="#DejaVuSans-20" x="604.890625"/>
      <use xlink:href="#DejaVuSans-74" x="636.677734"/>
      <use xlink:href="#DejaVuSans-65" x="675.886719"/>
      <use xlink:href="#DejaVuSans-6d" x="737.410156"/>
      <use xlink:href="#DejaVuSans-70" x="834.822266"/>
      <use xlink:href="#DejaVuSans-65" x="898.298828"/>
      <use xlink:href="#DejaVuSans-72" x="959.822266"/>
      <use xlink:href="#DejaVuSans-61" x="1000.935547"/>
      <use xlink:href="#DejaVuSans-74" x="1062.214844"/>
      <use xlink:href="#DejaVuSans-75" x="1101.423828"/>
      <use xlink:href="#DejaVuSans-72" x="1164.802734"/>
      <use xlink:href="#DejaVuSans-65" x="1203.666016"/>
      <use xlink:href="#DejaVuSans-20" x="1265.189453"/>
      <use xlink:href="#DejaVuSans-3d" x="1296.976562"/>
      <use xlink:href="#DejaVuSans-20" x="1380.765625"/>
      <use xlink:href="#DejaVuSans-2d" x="1412.552734"/>
      <use xlink:href="#DejaVuSans-34" x="1448.636719"/>
      <use xlink:href="#DejaVuSans-30" x="1512.259766"/>
     </g>
    </g>
    <g id="line2d_35">
     <path d="M 425.54855 44.654687 
L 435.54855 44.654687 
L 445.54855 44.654687 
" style="fill: none; stroke: #2ca02c; stroke-width: 1.5; stroke-linecap: square"/>
    </g>
    <g id="text_20">
     <!-- corner = typical, temperature = -40 -->
     <g transform="translate(453.54855 48.154687) scale(0.1 -0.1)">
      <defs>
       <path id="DejaVuSans-79" d="M 2059 -325 
Q 1816 -950 1584 -1140 
Q 1353 -1331 966 -1331 
L 506 -1331 
L 506 -850 
L 844 -850 
Q 1081 -850 1212 -737 
Q 1344 -625 1503 -206 
L 1606 56 
L 191 3500 
L 800 3500 
L 1894 763 
L 2988 3500 
L 3597 3500 
L 2059 -325 
z
" transform="scale(0.015625)"/>
       <path id="DejaVuSans-6c" d="M 603 4863 
L 1178 4863 
L 1178 0 
L 603 0 
L 603 4863 
z
" transform="scale(0.015625)"/>
      </defs>
      <use xlink:href="#DejaVuSans-63"/>
      <use xlink:href="#DejaVuSans-6f" x="54.980469"/>
      <use xlink:href="#DejaVuSans-72" x="116.162109"/>
      <use xlink:href="#DejaVuSans-6e" x="155.525391"/>
      <use xlink:href="#DejaVuSans-65" x="218.904297"/>
      <use xlink:href="#DejaVuSans-72" x="280.427734"/>
      <use xlink:href="#DejaVuSans-20" x="321.541016"/>
      <use xlink:href="#DejaVuSans-3d" x="353.328125"/>
      <use xlink:href="#DejaVuSans-20" x="437.117188"/>
      <use xlink:href="#DejaVuSans-74" x="468.904297"/>
      <use xlink:href="#DejaVuSans-79" x="508.113281"/>
      <use xlink:href="#DejaVuSans-70" x="567.292969"/>
      <use xlink:href="#DejaVuSans-69" x="630.769531"/>
      <use xlink:href="#DejaVuSans-63" x="658.552734"/>
      <use xlink:href="#DejaVuSans-61" x="713.533203"/>
      <use xlink:href="#DejaVuSans-6c" x="774.8125"/>
      <use xlink:href="#DejaVuSans-2c" x="802.595703"/>
      <use xlink:href="#DejaVuSans-20" x="834.382812"/>
      <use xlink:href="#DejaVuSans-74" x="866.169922"/>
      <use xlink:href="#DejaVuSans-65" x="905.378906"/>
      <use xlink:href="#DejaVuSans-6d" x="966.902344"/>
      <use xlink:href="#DejaVuSans-70" x="1064.314453"/>
      <use xlink:href="#DejaVuSans-65" x="1127.791016"/>
      <use xlink:href="#DejaVuSans-72" x="1189.314453"/>
      <use xlink:href="#DejaVuSans-61" x="1230.427734"/>
      <use xlink:href="#DejaVuSans-74" x="1291.707031"/>
      <use xlink:href="#DejaVuSans-75" x="1330.916016"/>
      <use xlink:href="#DejaVuSans-72" x="1394.294922"/>
      <use xlink:href="#DejaVuSans-65" x="1433.158203"/>
      <use xlink:href="#DejaVuSans-20" x="1494.681641"/>
      <use xlink:href="#DejaVuSans-3d" x="1526.46875"/>
      <use xlink:href="#DejaVuSans-20" x="1610.257812"/>
      <use xlink:href="#DejaVuSans-2d" x="1642.044922"/>
      <use xlink:href="#DejaVuSans-34" x="1678.128906"/>
      <use xlink:href="#DejaVuSans-30" x="1741.751953"/>
     </g>
    </g>
    <g id="line2d_36">
     <path d="M 425.54855 59.332812 
L 435.54855 59.332812 
L 445.54855 59.332812 
" style="fill: none; stroke: #d62728; stroke-width: 1.5; stroke-linecap: square"/>
    </g>
    <g id="text_21">
     <!-- corner = typical, temperature = -40 -->
     <g transform="translate(453.54855 62.832812) scale(0.1 -0.1)">
      <use xlink:href="#DejaVuSans-63"/>
      <use xlink:href="#DejaVuSans-6f" x="54.980469"/>
      <use xlink:href="#DejaVuSans-72" x="116.162109"/>
      <use xlink:href="#DejaVuSans-6e" x="155.525391"/>
      <use xlink:href="#DejaVuSans-65" x="218.904297"/>
      <use xlink:href="#DejaVuSans-72" x="280.427734"/>
      <use xlink:href="#DejaVuSans-20" x="321.541016"/>
      <use xlink:href="#DejaVuSans-3d" x="353.328125"/>
      <use xlink:href="#DejaVuSans-20" x="437.117188"/>
      <use xlink:href="#DejaVuSans-74" x="468.904297"/>
      <use xlink:href="#DejaVuSans-79" x="508.113281"/>
      <use xlink:href="#DejaVuSans-70" x="567.292969"/>
      <use xlink:href="#DejaVuSans-69" x="630.769531"/>
      <use xlink:href="#DejaVuSans-63" x="658.552734"/>
      <use xlink:href="#DejaVuSans-61" x="713.533203"/>
      <use xlink:href="#DejaVuSans-6c" x="774.8125"/>
      <use xlink:href="#DejaVuSans-2c" x="802.595703"/>
      <use xlink:href="#DejaVuSans-20" x="834.382812"/>
      <use xlink:href="#DejaVuSans-74" x="866.169922"/>
      <use xlink:href="#DejaVuSans-65" x="905.378906"/>
      <use xlink:href="#DejaVuSans-6d" x="966.902344"/>
      <use xlink:href="#DejaVuSans-70" x="1064.314453"/>
      <use xlink:href="#DejaVuSans-65" x="1127.791016"/>
      <use xlink:href="#DejaVuSans-72" x="1189.314453"/>
      <use xlink:href="#DejaVuSans-61" x="1230.427734"/>
      <use xlink:href="#DejaVuSans-74" x="1291.707031"/>
      <use xlink:href="#DejaVuSans-75" x="1330.916016"/>
      <use xlink:href="#DejaVuSans-72" x="1394.294922"/>
      <use xlink:href="#DejaVuSans-65" x="1433.158203"/>
      <use xlink:href="#DejaVuSans-20" x="1494.681641"/>
      <use xlink:href="#DejaVuSans-3d" x="1526.46875"/>
      <use xlink:href="#DejaVuSans-20" x="1610.257812"/>
      <use xlink:href="#DejaVuSans-2d" x="1642.044922"/>
      <use xlink:href="#DejaVuSans-34" x="1678.128906"/>
      <use xlink:href="#DejaVuSans-30" x="1741.751953"/>
     </g>
    </g>
    <g id="line2d_37">
     <path d="M 425.54855 74.010938 
L 435.54855 74.010938 
L 445.54855 74.010938 
" style="fill: none; stroke: #9467bd; stroke-width: 1.5; stroke-linecap: square"/>
    </g>
    <g id="text_22">
     <!-- corner = ff, temperature = -40 -->
     <g transform="translate(453.54855 77.510938) scale(0.1 -0.1)">
      <defs>
       <path id="DejaVuSans-66" d="M 2375 4863 
L 2375 4384 
L 1825 4384 
Q 1516 4384 1395 4259 
Q 1275 4134 1275 3809 
L 1275 3500 
L 2222 3500 
L 2222 3053 
L 1275 3053 
L 1275 0 
L 697 0 
L 697 3053 
L 147 3053 
L 147 3500 
L 697 3500 
L 697 3744 
Q 697 4328 969 4595 
Q 1241 4863 1831 4863 
L 2375 4863 
z
" transform="scale(0.015625)"/>
      </defs>
      <use xlink:href="#DejaVuSans-63"/>
      <use xlink:href="#DejaVuSans-6f" x="54.980469"/>
      <use xlink:href="#DejaVuSans-72" x="116.162109"/>
      <use xlink:href="#DejaVuSans-6e" x="155.525391"/>
      <use xlink:href="#DejaVuSans-65" x="218.904297"/>
      <use xlink:href="#DejaVuSans-72" x="280.427734"/>
      <use xlink:href="#DejaVuSans-20" x="321.541016"/>
      <use xlink:href="#DejaVuSans-3d" x="353.328125"/>
      <use xlink:href="#DejaVuSans-20" x="437.117188"/>
      <use xlink:href="#DejaVuSans-66" x="468.904297"/>
      <use xlink:href="#DejaVuSans-66" x="504.109375"/>
      <use xlink:href="#DejaVuSans-2c" x="539.314453"/>
      <use xlink:href="#DejaVuSans-20" x="571.101562"/>
      <use xlink:href="#DejaVuSans-74" x="602.888672"/>
      <use xlink:href="#DejaVuSans-65" x="642.097656"/>
      <use xlink:href="#DejaVuSans-6d" x="703.621094"/>
      <use xlink:href="#DejaVuSans-70" x="801.033203"/>
      <use xlink:href="#DejaVuSans-65" x="864.509766"/>
      <use xlink:href="#DejaVuSans-72" x="926.033203"/>
      <use xlink:href="#DejaVuSans-61" x="967.146484"/>
      <use xlink:href="#DejaVuSans-74" x="1028.425781"/>
      <use xlink:href="#DejaVuSans-75" x="1067.634766"/>
      <use xlink:href="#DejaVuSans-72" x="1131.013672"/>
      <use xlink:href="#DejaVuSans-65" x="1169.876953"/>
      <use xlink:href="#DejaVuSans-20" x="1231.400391"/>
      <use xlink:href="#DejaVuSans-3d" x="1263.1875"/>
      <use xlink:href="#DejaVuSans-20" x="1346.976562"/>
      <use xlink:href="#DejaVuSans-2d" x="1378.763672"/>
      <use xlink:href="#DejaVuSans-34" x="1414.847656"/>
      <use xlink:href="#DejaVuSans-30" x="1478.470703"/>
     </g>
    </g>
    <g id="line2d_38">
     <path d="M 425.54855 88.689062 
L 435.54855 88.689062 
L 445.54855 88.689062 
" style="fill: none; stroke: #8c564b; stroke-width: 1.5; stroke-linecap: square"/>
    </g>
    <g id="text_23">
     <!-- corner = ff, temperature = -40 -->
     <g transform="translate(453.54855 92.189062) scale(0.1 -0.1)">
      <use xlink:href="#DejaVuSans-63"/>
      <use xlink:href="#DejaVuSans-6f" x="54.980469"/>
      <use xlink:href="#DejaVuSans-72" x="116.162109"/>
      <use xlink:href="#DejaVuSans-6e" x="155.525391"/>
      <use xlink:href="#DejaVuSans-65" x="218.904297"/>
      <use xlink:href="#DejaVuSans-72" x="280.427734"/>
      <use xlink:href="#DejaVuSans-20" x="321.541016"/>
      <use xlink:href="#DejaVuSans-3d" x="353.328125"/>
      <use xlink:href="#DejaVuSans-20" x="437.117188"/>
      <use xlink:href="#DejaVuSans-66" x="468.904297"/>
      <use xlink:href="#DejaVuSans-66" x="504.109375"/>
      <use xlink:href="#DejaVuSans-2c" x="539.314453"/>
      <use xlink:href="#DejaVuSans-20" x="571.101562"/>
      <use xlink:href="#DejaVuSans-74" x="602.888672"/>
      <use xlink:href="#DejaVuSans-65" x="642.097656"/>
      <use xlink:href="#DejaVuSans-6d" x="703.621094"/>
      <use xlink:href="#DejaVuSans-70" x="801.033203"/>
      <use xlink:href="#DejaVuSans-65" x="864.509766"/>
      <use xlink:href="#DejaVuSans-72" x="926.033203"/>
      <use xlink:href="#DejaVuSans-61" x="967.146484"/>
      <use xlink:href="#DejaVuSans-74" x="1028.425781"/>
      <use xlink:href="#DejaVuSans-75" x="1067.634766"/>
      <use xlink:href="#DejaVuSans-72" x="1131.013672"/>
      <use xlink:href="#DejaVuSans-65" x="1169.876953"/>
      <use xlink:href="#DejaVuSans-20" x="1231.400391"/>
      <use xlink:href="#DejaVuSans-3d" x="1263.1875"/>
      <use xlink:href="#DejaVuSans-20" x="1346.976562"/>
      <use xlink:href="#DejaVuSans-2d" x="1378.763672"/>
      <use xlink:href="#DejaVuSans-34" x="1414.847656"/>
      <use xlink:href="#DejaVuSans-30" x="1478.470703"/>
     </g>
    </g>
    <g id="line2d_39">
     <path d="M 425.54855 103.367188 
L 435.54855 103.367188 
L 445.54855 103.367188 
" style="fill: none; stroke: #e377c2; stroke-width: 1.5; stroke-linecap: square"/>
    </g>
    <g id="text_24">
     <!-- corner = ss, temperature = 27 -->
     <g transform="translate(453.54855 106.867188) scale(0.1 -0.1)">
      <use xlink:href="#DejaVuSans-63"/>
      <use xlink:href="#DejaVuSans-6f" x="54.980469"/>
      <use xlink:href="#DejaVuSans-72" x="116.162109"/>
      <use xlink:href="#DejaVuSans-6e" x="155.525391"/>
      <use xlink:href="#DejaVuSans-65" x="218.904297"/>
      <use xlink:href="#DejaVuSans-72" x="280.427734"/>
      <use xlink:href="#DejaVuSans-20" x="321.541016"/>
      <use xlink:href="#DejaVuSans-3d" x="353.328125"/>
      <use xlink:href="#DejaVuSans-20" x="437.117188"/>
      <use xlink:href="#DejaVuSans-73" x="468.904297"/>
      <use xlink:href="#DejaVuSans-73" x="521.003906"/>
      <use xlink:href="#DejaVuSans-2c" x="573.103516"/>
      <use xlink:href="#DejaVuSans-20" x="604.890625"/>
      <use xlink:href="#DejaVuSans-74" x="636.677734"/>
      <use xlink:href="#DejaVuSans-65" x="675.886719"/>
      <use xlink:href="#DejaVuSans-6d" x="737.410156"/>
      <use xlink:href="#DejaVuSans-70" x="834.822266"/>
      <use xlink:href="#DejaVuSans-65" x="898.298828"/>
      <use xlink:href="#DejaVuSans-72" x="959.822266"/>
      <use xlink:href="#DejaVuSans-61" x="1000.935547"/>
      <use xlink:href="#DejaVuSans-74" x="1062.214844"/>
      <use xlink:href="#DejaVuSans-75" x="1101.423828"/>
      <use xlink:href="#DejaVuSans-72" x="1164.802734"/>
      <use xlink:href="#DejaVuSans-65" x="1203.666016"/>
      <use xlink:href="#DejaVuSans-20" x="1265.189453"/>
      <use xlink:href="#DejaVuSans-3d" x="1296.976562"/>
      <use xlink:href="#DejaVuSans-20" x="1380.765625"/>
      <use xlink:href="#DejaVuSans-32" x="1412.552734"/>
      <use xlink:href="#DejaVuSans-37" x="1476.175781"/>
     </g>
    </g>
    <g id="line2d_40">
     <path d="M 425.54855 118.045312 
L 435.54855 118.045312 
L 445.54855 118.045312 
" style="fill: none; stroke: #7f7f7f; stroke-width: 1.5; stroke-linecap: square"/>
    </g>
    <g id="text_25">
     <!-- corner = ss, temperature = 27 -->
     <g transform="translate(453.54855 121.545312) scale(0.1 -0.1)">
      <use xlink:href="#DejaVuSans-63"/>
      <use xlink:href="#DejaVuSans-6f" x="54.980469"/>
      <use xlink:href="#DejaVuSans-72" x="116.162109"/>
      <use xlink:href="#DejaVuSans-6e" x="155.525391"/>
      <use xlink:href="#DejaVuSans-65" x="218.904297"/>
      <use xlink:href="#DejaVuSans-72" x="280.427734"/>
      <use xlink:href="#DejaVuSans-20" x="321.541016"/>
      <use xlink:href="#DejaVuSans-3d" x="353.328125"/>
      <use xlink:href="#DejaVuSans-20" x="437.117188"/>
      <use xlink:href="#DejaVuSans-73" x="468.904297"/>
      <use xlink:href="#DejaVuSans-73" x="521.003906"/>
      <use xlink:href="#DejaVuSans-2c" x="573.103516"/>
      <use xlink:href="#DejaVuSans-20" x="604.890625"/>
      <use xlink:href="#DejaVuSans-74" x="636.677734"/>
      <use xlink:href="#DejaVuSans-65" x="675.886719"/>
      <use xlink:href="#DejaVuSans-6d" x="737.410156"/>
      <use xlink:href="#DejaVuSans-70" x="834.822266"/>
      <use xlink:href="#DejaVuSans-65" x="898.298828"/>
      <use xlink:href="#DejaVuSans-72" x="959.822266"/>
      <use xlink:href="#DejaVuSans-61" x="1000.935547"/>
      <use xlink:href="#DejaVuSans-74" x="1062.214844"/>
      <use xlink:href="#DejaVuSans-75" x="1101.423828"/>
      <use xlink:href="#DejaVuSans-72" x="1164.802734"/>
      <use xlink:href="#DejaVuSans-65" x="1203.666016"/>
      <use xlink:href="#DejaVuSans-20" x="1265.189453"/>
      <use xlink:href="#DejaVuSans-3d" x="1296.976562"/>
      <use xlink:href="#DejaVuSans-20" x="1380.765625"/>
      <use xlink:href="#DejaVuSans-32" x="1412.552734"/>
      <use xlink:href="#DejaVuSans-37" x="1476.175781"/>
     </g>
    </g>
    <g id="line2d_41">
     <path d="M 425.54855 132.723437 
L 435.54855 132.723437 
L 445.54855 132.723437 
" style="fill: none; stroke: #bcbd22; stroke-width: 1.5; stroke-linecap: square"/>
    </g>
    <g id="text_26">
     <!-- corner = typical, temperature = 27 -->
     <g transform="translate(453.54855 136.223437) scale(0.1 -0.1)">
      <use xlink:href="#DejaVuSans-63"/>
      <use xlink:href="#DejaVuSans-6f" x="54.980469"/>
      <use xlink:href="#DejaVuSans-72" x="116.162109"/>
      <use xlink:href="#DejaVuSans-6e" x="155.525391"/>
      <use xlink:href="#DejaVuSans-65" x="218.904297"/>
      <use xlink:href="#DejaVuSans-72" x="280.427734"/>
      <use xlink:href="#DejaVuSans-20" x="321.541016"/>
      <use xlink:href="#DejaVuSans-3d" x="353.328125"/>
      <use xlink:href="#DejaVuSans-20" x="437.117188"/>
      <use xlink:href="#DejaVuSans-74" x="468.904297"/>
      <use xlink:href="#DejaVuSans-79" x="508.113281"/>
      <use xlink:href="#DejaVuSans-70" x="567.292969"/>
      <use xlink:href="#DejaVuSans-69" x="630.769531"/>
      <use xlink:href="#DejaVuSans-63" x="658.552734"/>
      <use xlink:href="#DejaVuSans-61" x="713.533203"/>
      <use xlink:href="#DejaVuSans-6c" x="774.8125"/>
      <use xlink:href="#DejaVuSans-2c" x="802.595703"/>
      <use xlink:href="#DejaVuSans-20" x="834.382812"/>
      <use xlink:href="#DejaVuSans-74" x="866.169922"/>
      <use xlink:href="#DejaVuSans-65" x="905.378906"/>
      <use xlink:href="#DejaVuSans-6d" x="966.902344"/>
      <use xlink:href="#DejaVuSans-70" x="1064.314453"/>
      <use xlink:href="#DejaVuSans-65" x="1127.791016"/>
      <use xlink:href="#DejaVuSans-72" x="1189.314453"/>
      <use xlink:href="#DejaVuSans-61" x="1230.427734"/>
      <use xlink:href="#DejaVuSans-74" x="1291.707031"/>
      <use xlink:href="#DejaVuSans-75" x="1330.916016"/>
      <use xlink:href="#DejaVuSans-72" x="1394.294922"/>
      <use xlink:href="#DejaVuSans-65" x="1433.158203"/>
      <use xlink:href="#DejaVuSans-20" x="1494.681641"/>
      <use xlink:href="#DejaVuSans-3d" x="1526.46875"/>
      <use xlink:href="#DejaVuSans-20" x="1610.257812"/>
      <use xlink:href="#DejaVuSans-32" x="1642.044922"/>
      <use xlink:href="#DejaVuSans-37" x="1705.667969"/>
     </g>
    </g>
    <g id="line2d_42">
     <path d="M 425.54855 147.401562 
L 435.54855 147.401562 
L 445.54855 147.401562 
" style="fill: none; stroke: #17becf; stroke-width: 1.5; stroke-linecap: square"/>
    </g>
    <g id="text_27">
     <!-- corner = typical, temperature = 27 -->
     <g transform="translate(453.54855 150.901562) scale(0.1 -0.1)">
      <use xlink:href="#DejaVuSans-63"/>
      <use xlink:href="#DejaVuSans-6f" x="54.980469"/>
      <use xlink:href="#DejaVuSans-72" x="116.162109"/>
      <use xlink:href="#DejaVuSans-6e" x="155.525391"/>
      <use xlink:href="#DejaVuSans-65" x="218.904297"/>
      <use xlink:href="#DejaVuSans-72" x="280.427734"/>
      <use xlink:href="#DejaVuSans-20" x="321.541016"/>
      <use xlink:href="#DejaVuSans-3d" x="353.328125"/>
      <use xlink:href="#DejaVuSans-20" x="437.117188"/>
      <use xlink:href="#DejaVuSans-74" x="468.904297"/>
      <use xlink:href="#DejaVuSans-79" x="508.113281"/>
      <use xlink:href="#DejaVuSans-70" x="567.292969"/>
      <use xlink:href="#DejaVuSans-69" x="630.769531"/>
      <use xlink:href="#DejaVuSans-63" x="658.552734"/>
      <use xlink:href="#DejaVuSans-61" x="713.533203"/>
      <use xlink:href="#DejaVuSans-6c" x="774.8125"/>
      <use xlink:href="#DejaVuSans-2c" x="802.595703"/>
      <use xlink:href="#DejaVuSans-20" x="834.382812"/>
      <use xlink:href="#DejaVuSans-74" x="866.169922"/>
      <use xlink:href="#DejaVuSans-65" x="905.378906"/>
      <use xlink:href="#DejaVuSans-6d" x="966.902344"/>
      <use xlink:href="#DejaVuSans-70" x="1064.314453"/>
      <use xlink:href="#DejaVuSans-65" x="1127.791016"/>
      <use xlink:href="#DejaVuSans-72" x="1189.314453"/>
      <use xlink:href="#DejaVuSans-61" x="1230.427734"/>
      <use xlink:href="#DejaVuSans-74" x="1291.707031"/>
      <use xlink:href="#DejaVuSans-75" x="1330.916016"/>
      <use xlink:href="#DejaVuSans-72" x="1394.294922"/>
      <use xlink:href="#DejaVuSans-65" x="1433.158203"/>
      <use xlink:href="#DejaVuSans-20" x="1494.681641"/>
      <use xlink:href="#DejaVuSans-3d" x="1526.46875"/>
      <use xlink:href="#DejaVuSans-20" x="1610.257812"/>
      <use xlink:href="#DejaVuSans-32" x="1642.044922"/>
      <use xlink:href="#DejaVuSans-37" x="1705.667969"/>
     </g>
    </g>
    <g id="line2d_43">
     <path d="M 425.54855 162.079687 
L 435.54855 162.079687 
L 445.54855 162.079687 
" style="fill: none; stroke: #1f77b4; stroke-width: 1.5; stroke-linecap: square"/>
    </g>
    <g id="text_28">
     <!-- corner = ff, temperature = 27 -->
     <g transform="translate(453.54855 165.579687) scale(0.1 -0.1)">
      <use xlink:href="#DejaVuSans-63"/>
      <use xlink:href="#DejaVuSans-6f" x="54.980469"/>
      <use xlink:href="#DejaVuSans-72" x="116.162109"/>
      <use xlink:href="#DejaVuSans-6e" x="155.525391"/>
      <use xlink:href="#DejaVuSans-65" x="218.904297"/>
      <use xlink:href="#DejaVuSans-72" x="280.427734"/>
      <use xlink:href="#DejaVuSans-20" x="321.541016"/>
      <use xlink:href="#DejaVuSans-3d" x="353.328125"/>
      <use xlink:href="#DejaVuSans-20" x="437.117188"/>
      <use xlink:href="#DejaVuSans-66" x="468.904297"/>
      <use xlink:href="#DejaVuSans-66" x="504.109375"/>
      <use xlink:href="#DejaVuSans-2c" x="539.314453"/>
      <use xlink:href="#DejaVuSans-20" x="571.101562"/>
      <use xlink:href="#DejaVuSans-74" x="602.888672"/>
      <use xlink:href="#DejaVuSans-65" x="642.097656"/>
      <use xlink:href="#DejaVuSans-6d" x="703.621094"/>
      <use xlink:href="#DejaVuSans-70" x="801.033203"/>
      <use xlink:href="#DejaVuSans-65" x="864.509766"/>
      <use xlink:href="#DejaVuSans-72" x="926.033203"/>
      <use xlink:href="#DejaVuSans-61" x="967.146484"/>
      <use xlink:href="#DejaVuSans-74" x="1028.425781"/>
      <use xlink:href="#DejaVuSans-75" x="1067.634766"/>
      <use xlink:href="#DejaVuSans-72" x="1131.013672"/>
      <use xlink:href="#DejaVuSans-65" x="1169.876953"/>
      <use xlink:href="#DejaVuSans-20" x="1231.400391"/>
      <use xlink:href="#DejaVuSans-3d" x="1263.1875"/>
      <use xlink:href="#DejaVuSans-20" x="1346.976562"/>
      <use xlink:href="#DejaVuSans-32" x="1378.763672"/>
      <use xlink:href="#DejaVuSans-37" x="1442.386719"/>
     </g>
    </g>
    <g id="line2d_44">
     <path d="M 425.54855 176.757812 
L 435.54855 176.757812 
L 445.54855 176.757812 
" style="fill: none; stroke: #ff7f0e; stroke-width: 1.5; stroke-linecap: square"/>
    </g>
    <g id="text_29">
     <!-- corner = ff, temperature = 27 -->
     <g transform="translate(453.54855 180.257812) scale(0.1 -0.1)">
      <use xlink:href="#DejaVuSans-63"/>
      <use xlink:href="#DejaVuSans-6f" x="54.980469"/>
      <use xlink:href="#DejaVuSans-72" x="116.162109"/>
      <use xlink:href="#DejaVuSans-6e" x="155.525391"/>
      <use xlink:href="#DejaVuSans-65" x="218.904297"/>
      <use xlink:href="#DejaVuSans-72" x="280.427734"/>
      <use xlink:href="#DejaVuSans-20" x="321.541016"/>
      <use xlink:href="#DejaVuSans-3d" x="353.328125"/>
      <use xlink:href="#DejaVuSans-20" x="437.117188"/>
      <use xlink:href="#DejaVuSans-66" x="468.904297"/>
      <use xlink:href="#DejaVuSans-66" x="504.109375"/>
      <use xlink:href="#DejaVuSans-2c" x="539.314453"/>
      <use xlink:href="#DejaVuSans-20" x="571.101562"/>
      <use xlink:href="#DejaVuSans-74" x="602.888672"/>
      <use xlink:href="#DejaVuSans-65" x="642.097656"/>
      <use xlink:href="#DejaVuSans-6d" x="703.621094"/>
      <use xlink:href="#DejaVuSans-70" x="801.033203"/>
      <use xlink:href="#DejaVuSans-65" x="864.509766"/>
      <use xlink:href="#DejaVuSans-72" x="926.033203"/>
      <use xlink:href="#DejaVuSans-61" x="967.146484"/>
      <use xlink:href="#DejaVuSans-74" x="1028.425781"/>
      <use xlink:href="#DejaVuSans-75" x="1067.634766"/>
      <use xlink:href="#DejaVuSans-72" x="1131.013672"/>
      <use xlink:href="#DejaVuSans-65" x="1169.876953"/>
      <use xlink:href="#DejaVuSans-20" x="1231.400391"/>
      <use xlink:href="#DejaVuSans-3d" x="1263.1875"/>
      <use xlink:href="#DejaVuSans-20" x="1346.976562"/>
      <use xlink:href="#DejaVuSans-32" x="1378.763672"/>
      <use xlink:href="#DejaVuSans-37" x="1442.386719"/>
     </g>
    </g>
    <g id="line2d_45">
     <path d="M 425.54855 191.435937 
L 435.54855 191.435937 
L 445.54855 191.435937 
" style="fill: none; stroke: #2ca02c; stroke-width: 1.5; stroke-linecap: square"/>
    </g>
    <g id="text_30">
     <!-- corner = ss, temperature = 130 -->
     <g transform="translate(453.54855 194.935937) scale(0.1 -0.1)">
      <use xlink:href="#DejaVuSans-63"/>
      <use xlink:href="#DejaVuSans-6f" x="54.980469"/>
      <use xlink:href="#DejaVuSans-72" x="116.162109"/>
      <use xlink:href="#DejaVuSans-6e" x="155.525391"/>
      <use xlink:href="#DejaVuSans-65" x="218.904297"/>
      <use xlink:href="#DejaVuSans-72" x="280.427734"/>
      <use xlink:href="#DejaVuSans-20" x="321.541016"/>
      <use xlink:href="#DejaVuSans-3d" x="353.328125"/>
      <use xlink:href="#DejaVuSans-20" x="437.117188"/>
      <use xlink:href="#DejaVuSans-73" x="468.904297"/>
      <use xlink:href="#DejaVuSans-73" x="521.003906"/>
      <use xlink:href="#DejaVuSans-2c" x="573.103516"/>
      <use xlink:href="#DejaVuSans-20" x="604.890625"/>
      <use xlink:href="#DejaVuSans-74" x="636.677734"/>
      <use xlink:href="#DejaVuSans-65" x="675.886719"/>
      <use xlink:href="#DejaVuSans-6d" x="737.410156"/>
      <use xlink:href="#DejaVuSans-70" x="834.822266"/>
      <use xlink:href="#DejaVuSans-65" x="898.298828"/>
      <use xlink:href="#DejaVuSans-72" x="959.822266"/>
      <use xlink:href="#DejaVuSans-61" x="1000.935547"/>
      <use xlink:href="#DejaVuSans-74" x="1062.214844"/>
      <use xlink:href="#DejaVuSans-75" x="1101.423828"/>
      <use xlink:href="#DejaVuSans-72" x="1164.802734"/>
      <use xlink:href="#DejaVuSans-65" x="1203.666016"/>
      <use xlink:href="#DejaVuSans-20" x="1265.189453"/>
      <use xlink:href="#DejaVuSans-3d" x="1296.976562"/>
      <use xlink:href="#DejaVuSans-20" x="1380.765625"/>
      <use xlink:href="#DejaVuSans-31" x="1412.552734"/>
      <use xlink:href="#DejaVuSans-33" x="1476.175781"/>
      <use xlink:href="#DejaVuSans-30" x="1539.798828"/>
     </g>
    </g>
    <g id="line2d_46">
     <path d="M 425.54855 206.114062 
L 435.54855 206.114062 
L 445.54855 206.114062 
" style="fill: none; stroke: #d62728; stroke-width: 1.5; stroke-linecap: square"/>
    </g>
    <g id="text_31">
     <!-- corner = ss, temperature = 130 -->
     <g transform="translate(453.54855 209.614062) scale(0.1 -0.1)">
      <use xlink:href="#DejaVuSans-63"/>
      <use xlink:href="#DejaVuSans-6f" x="54.980469"/>
      <use xlink:href="#DejaVuSans-72" x="116.162109"/>
      <use xlink:href="#DejaVuSans-6e" x="155.525391"/>
      <use xlink:href="#DejaVuSans-65" x="218.904297"/>
      <use xlink:href="#DejaVuSans-72" x="280.427734"/>
      <use xlink:href="#DejaVuSans-20" x="321.541016"/>
      <use xlink:href="#DejaVuSans-3d" x="353.328125"/>
      <use xlink:href="#DejaVuSans-20" x="437.117188"/>
      <use xlink:href="#DejaVuSans-73" x="468.904297"/>
      <use xlink:href="#DejaVuSans-73" x="521.003906"/>
      <use xlink:href="#DejaVuSans-2c" x="573.103516"/>
      <use xlink:href="#DejaVuSans-20" x="604.890625"/>
      <use xlink:href="#DejaVuSans-74" x="636.677734"/>
      <use xlink:href="#DejaVuSans-65" x="675.886719"/>
      <use xlink:href="#DejaVuSans-6d" x="737.410156"/>
      <use xlink:href="#DejaVuSans-70" x="834.822266"/>
      <use xlink:href="#DejaVuSans-65" x="898.298828"/>
      <use xlink:href="#DejaVuSans-72" x="959.822266"/>
      <use xlink:href="#DejaVuSans-61" x="1000.935547"/>
      <use xlink:href="#DejaVuSans-74" x="1062.214844"/>
      <use xlink:href="#DejaVuSans-75" x="1101.423828"/>
      <use xlink:href="#DejaVuSans-72" x="1164.802734"/>
      <use xlink:href="#DejaVuSans-65" x="1203.666016"/>
      <use xlink:href="#DejaVuSans-20" x="1265.189453"/>
      <use xlink:href="#DejaVuSans-3d" x="1296.976562"/>
      <use xlink:href="#DejaVuSans-20" x="1380.765625"/>
      <use xlink:href="#DejaVuSans-31" x="1412.552734"/>
      <use xlink:href="#DejaVuSans-33" x="1476.175781"/>
      <use xlink:href="#DejaVuSans-30" x="1539.798828"/>
     </g>
    </g>
    <g id="line2d_47">
     <path d="M 425.54855 220.792187 
L 435.54855 220.792187 
L 445.54855 220.792187 
" style="fill: none; stroke: #9467bd; stroke-width: 1.5; stroke-linecap: square"/>
    </g>
    <g id="text_32">
     <!-- corner = typical, temperature = 130 -->
     <g transform="translate(453.54855 224.292187) scale(0.1 -0.1)">
      <use xlink:href="#DejaVuSans-63"/>
      <use xlink:href="#DejaVuSans-6f" x="54.980469"/>
      <use xlink:href="#DejaVuSans-72" x="116.162109"/>
      <use xlink:href="#DejaVuSans-6e" x="155.525391"/>
      <use xlink:href="#DejaVuSans-65" x="218.904297"/>
      <use xlink:href="#DejaVuSans-72" x="280.427734"/>
      <use xlink:href="#DejaVuSans-20" x="321.541016"/>
      <use xlink:href="#DejaVuSans-3d" x="353.328125"/>
      <use xlink:href="#DejaVuSans-20" x="437.117188"/>
      <use xlink:href="#DejaVuSans-74" x="468.904297"/>
      <use xlink:href="#DejaVuSans-79" x="508.113281"/>
      <use xlink:href="#DejaVuSans-70" x="567.292969"/>
      <use xlink:href="#DejaVuSans-69" x="630.769531"/>
      <use xlink:href="#DejaVuSans-63" x="658.552734"/>
      <use xlink:href="#DejaVuSans-61" x="713.533203"/>
      <use xlink:href="#DejaVuSans-6c" x="774.8125"/>
      <use xlink:href="#DejaVuSans-2c" x="802.595703"/>
      <use xlink:href="#DejaVuSans-20" x="834.382812"/>
      <use xlink:href="#DejaVuSans-74" x="866.169922"/>
      <use xlink:href="#DejaVuSans-65" x="905.378906"/>
      <use xlink:href="#DejaVuSans-6d" x="966.902344"/>
      <use xlink:href="#DejaVuSans-70" x="1064.314453"/>
      <use xlink:href="#DejaVuSans-65" x="1127.791016"/>
      <use xlink:href="#DejaVuSans-72" x="1189.314453"/>
      <use xlink:href="#DejaVuSans-61" x="1230.427734"/>
      <use xlink:href="#DejaVuSans-74" x="1291.707031"/>
      <use xlink:href="#DejaVuSans-75" x="1330.916016"/>
      <use xlink:href="#DejaVuSans-72" x="1394.294922"/>
      <use xlink:href="#DejaVuSans-65" x="1433.158203"/>
      <use xlink:href="#DejaVuSans-20" x="1494.681641"/>
      <use xlink:href="#DejaVuSans-3d" x="1526.46875"/>
      <use xlink:href="#DejaVuSans-20" x="1610.257812"/>
      <use xlink:href="#DejaVuSans-31" x="1642.044922"/>
      <use xlink:href="#DejaVuSans-33" x="1705.667969"/>
      <use xlink:href="#DejaVuSans-30" x="1769.291016"/>
     </g>
    </g>
    <g id="line2d_48">
     <path d="M 425.54855 235.470312 
L 435.54855 235.470312 
L 445.54855 235.470312 
" style="fill: none; stroke: #8c564b; stroke-width: 1.5; stroke-linecap: square"/>
    </g>
    <g id="text_33">
     <!-- corner = typical, temperature = 130 -->
     <g transform="translate(453.54855 238.970312) scale(0.1 -0.1)">
      <use xlink:href="#DejaVuSans-63"/>
      <use xlink:href="#DejaVuSans-6f" x="54.980469"/>
      <use xlink:href="#DejaVuSans-72" x="116.162109"/>
      <use xlink:href="#DejaVuSans-6e" x="155.525391"/>
      <use xlink:href="#DejaVuSans-65" x="218.904297"/>
      <use xlink:href="#DejaVuSans-72" x="280.427734"/>
      <use xlink:href="#DejaVuSans-20" x="321.541016"/>
      <use xlink:href="#DejaVuSans-3d" x="353.328125"/>
      <use xlink:href="#DejaVuSans-20" x="437.117188"/>
      <use xlink:href="#DejaVuSans-74" x="468.904297"/>
      <use xlink:href="#DejaVuSans-79" x="508.113281"/>
      <use xlink:href="#DejaVuSans-70" x="567.292969"/>
      <use xlink:href="#DejaVuSans-69" x="630.769531"/>
      <use xlink:href="#DejaVuSans-63" x="658.552734"/>
      <use xlink:href="#DejaVuSans-61" x="713.533203"/>
      <use xlink:href="#DejaVuSans-6c" x="774.8125"/>
      <use xlink:href="#DejaVuSans-2c" x="802.595703"/>
      <use xlink:href="#DejaVuSans-20" x="834.382812"/>
      <use xlink:href="#DejaVuSans-74" x="866.169922"/>
      <use xlink:href="#DejaVuSans-65" x="905.378906"/>
      <use xlink:href="#DejaVuSans-6d" x="966.902344"/>
      <use xlink:href="#DejaVuSans-70" x="1064.314453"/>
      <use xlink:href="#DejaVuSans-65" x="1127.791016"/>
      <use xlink:href="#DejaVuSans-72" x="1189.314453"/>
      <use xlink:href="#DejaVuSans-61" x="1230.427734"/>
      <use xlink:href="#DejaVuSans-74" x="1291.707031"/>
      <use xlink:href="#DejaVuSans-75" x="1330.916016"/>
      <use xlink:href="#DejaVuSans-72" x="1394.294922"/>
      <use xlink:href="#DejaVuSans-65" x="1433.158203"/>
      <use xlink:href="#DejaVuSans-20" x="1494.681641"/>
      <use xlink:href="#DejaVuSans-3d" x="1526.46875"/>
      <use xlink:href="#DejaVuSans-20" x="1610.257812"/>
      <use xlink:href="#DejaVuSans-31" x="1642.044922"/>
      <use xlink:href="#DejaVuSans-33" x="1705.667969"/>
      <use xlink:href="#DejaVuSans-30" x="1769.291016"/>
     </g>
    </g>
    <g id="line2d_49">
     <path d="M 425.54855 250.148437 
L 435.54855 250.148437 
L 445.54855 250.148437 
" style="fill: none; stroke: #e377c2; stroke-width: 1.5; stroke-linecap: square"/>
    </g>
    <g id="text_34">
     <!-- corner = ff, temperature = 130 -->
     <g transform="translate(453.54855 253.648437) scale(0.1 -0.1)">
      <use xlink:href="#DejaVuSans-63"/>
      <use xlink:href="#DejaVuSans-6f" x="54.980469"/>
      <use xlink:href="#DejaVuSans-72" x="116.162109"/>
      <use xlink:href="#DejaVuSans-6e" x="155.525391"/>
      <use xlink:href="#DejaVuSans-65" x="218.904297"/>
      <use xlink:href="#DejaVuSans-72" x="280.427734"/>
      <use xlink:href="#DejaVuSans-20" x="321.541016"/>
      <use xlink:href="#DejaVuSans-3d" x="353.328125"/>
      <use xlink:href="#DejaVuSans-20" x="437.117188"/>
      <use xlink:href="#DejaVuSans-66" x="468.904297"/>
      <use xlink:href="#DejaVuSans-66" x="504.109375"/>
      <use xlink:href="#DejaVuSans-2c" x="539.314453"/>
      <use xlink:href="#DejaVuSans-20" x="571.101562"/>
      <use xlink:href="#DejaVuSans-74" x="602.888672"/>
      <use xlink:href="#DejaVuSans-65" x="642.097656"/>
      <use xlink:href="#DejaVuSans-6d" x="703.621094"/>
      <use xlink:href="#DejaVuSans-70" x="801.033203"/>
      <use xlink:href="#DejaVuSans-65" x="864.509766"/>
      <use xlink:href="#DejaVuSans-72" x="926.033203"/>
      <use xlink:href="#DejaVuSans-61" x="967.146484"/>
      <use xlink:href="#DejaVuSans-74" x="1028.425781"/>
      <use xlink:href="#DejaVuSans-75" x="1067.634766"/>
      <use xlink:href="#DejaVuSans-72" x="1131.013672"/>
      <use xlink:href="#DejaVuSans-65" x="1169.876953"/>
      <use xlink:href="#DejaVuSans-20" x="1231.400391"/>
      <use xlink:href="#DejaVuSans-3d" x="1263.1875"/>
      <use xlink:href="#DejaVuSans-20" x="1346.976562"/>
      <use xlink:href="#DejaVuSans-31" x="1378.763672"/>
      <use xlink:href="#DejaVuSans-33" x="1442.386719"/>
      <use xlink:href="#DejaVuSans-30" x="1506.009766"/>
     </g>
    </g>
    <g id="line2d_50">
     <path d="M 425.54855 264.826562 
L 435.54855 264.826562 
L 445.54855 264.826562 
" style="fill: none; stroke: #7f7f7f; stroke-width: 1.5; stroke-linecap: square"/>
    </g>
    <g id="text_35">
     <!-- corner = ff, temperature = 130 -->
     <g transform="translate(453.54855 268.326562) scale(0.1 -0.1)">
      <use xlink:href="#DejaVuSans-63"/>
      <use xlink:href="#DejaVuSans-6f" x="54.980469"/>
      <use xlink:href="#DejaVuSans-72" x="116.162109"/>
      <use xlink:href="#DejaVuSans-6e" x="155.525391"/>
      <use xlink:href="#DejaVuSans-65" x="218.904297"/>
      <use xlink:href="#DejaVuSans-72" x="280.427734"/>
      <use xlink:href="#DejaVuSans-20" x="321.541016"/>
      <use xlink:href="#DejaVuSans-3d" x="353.328125"/>
      <use xlink:href="#DejaVuSans-20" x="437.117188"/>
      <use xlink:href="#DejaVuSans-66" x="468.904297"/>
      <use xlink:href="#DejaVuSans-66" x="504.109375"/>
      <use xlink:href="#DejaVuSans-2c" x="539.314453"/>
      <use xlink:href="#DejaVuSans-20" x="571.101562"/>
      <use xlink:href="#DejaVuSans-74" x="602.888672"/>
      <use xlink:href="#DejaVuSans-65" x="642.097656"/>
      <use xlink:href="#DejaVuSans-6d" x="703.621094"/>
      <use xlink:href="#DejaVuSans-70" x="801.033203"/>
      <use xlink:href="#DejaVuSans-65" x="864.509766"/>
      <use xlink:href="#DejaVuSans-72" x="926.033203"/>
      <use xlink:href="#DejaVuSans-61" x="967.146484"/>
      <use xlink:href="#DejaVuSans-74" x="1028.425781"/>
      <use xlink:href="#DejaVuSans-75" x="1067.634766"/>
      <use xlink:href="#DejaVuSans-72" x="1131.013672"/>
      <use xlink:href="#DejaVuSans-65" x="1169.876953"/>
      <use xlink:href="#DejaVuSans-20" x="1231.400391"/>
      <use xlink:href="#DejaVuSans-3d" x="1263.1875"/>
      <use xlink:href="#DejaVuSans-20" x="1346.976562"/>
      <use xlink:href="#DejaVuSans-31" x="1378.763672"/>
      <use xlink:href="#DejaVuSans-33" x="1442.386719"/>
      <use xlink:href="#DejaVuSans-30" x="1506.009766"/>
     </g>
    </g>
   </g>
  </g>
 </g>
 <defs>
  <clipPath id="p64446e2e73">
   <rect x="50.14375" y="7.2" width="357.12" height="266.112"/>
  </clipPath>
 </defs>
</svg>
